  0
SECTION
  2
HEADER
  9
$ACADVER
  1
AC1009
  9
$FILLMODE
 70
 0
  9
$SPLFRAME
 70
 1
  9
$EXTMIN
 10
0
 20
0
 30
0.0
  9
$EXTMAX
 10
1058.33
 20
1058.33
 30
0.0
  0
ENDSEC
  0
SECTION
  2
TABLES
  0
TABLE
  2
LAYER
 70
1
  0
LAYER
  2
0
 70
     0
 62
     7
  6
CONTINUOUS
  0
ENDTAB
  0
ENDSEC
  0
SECTION
  2
ENTITIES
  0
LINE
  8
0
 62
     0
 10
0.0950846
 20
133.96
 30
0.0
 11
319.421
 21
133.96
 31
0.0
  0
LINE
  8
0
 62
     0
 10
319.421
 20
133.96
 30
0.0
 11
319.421
 21
0.373447
 31
0.0
  0
LINE
  8
0
 62
     0
 10
319.421
 20
0.373447
 30
0.0
 11
0.0950846
 21
0.373447
 31
0.0
  0
LINE
  8
0
 62
     0
 10
0.0950846
 20
0.373447
 30
0.0
 11
0.0950846
 21
133.96
 31
0.0
  0
LINE
  8
0
 62
     0
 10
257.532
 20
19.3987
 30
0.0
 11
271.531
 21
19.3987
 31
0.0
  0
LINE
  8
0
 62
     0
 10
271.531
 20
19.3987
 30
0.0
 11
271.531
 21
5.39916
 31
0.0
  0
LINE
  8
0
 62
     0
 10
271.531
 20
5.39916
 30
0.0
 11
257.532
 21
5.39916
 31
0.0
  0
LINE
  8
0
 62
     0
 10
257.532
 20
5.39916
 30
0.0
 11
257.532
 21
19.3987
 31
0.0
  0
LINE
  8
0
 62
     0
 10
276.582
 20
19.3987
 30
0.0
 11
290.581
 21
19.3987
 31
0.0
  0
LINE
  8
0
 62
     0
 10
290.581
 20
19.3987
 30
0.0
 11
290.581
 21
5.39916
 31
0.0
  0
LINE
  8
0
 62
     0
 10
290.581
 20
5.39916
 30
0.0
 11
276.582
 21
5.39916
 31
0.0
  0
LINE
  8
0
 62
     0
 10
276.582
 20
5.39916
 30
0.0
 11
276.582
 21
19.3987
 31
0.0
  0
LINE
  8
0
 62
     0
 10
295.632
 20
19.3987
 30
0.0
 11
309.631
 21
19.3987
 31
0.0
  0
LINE
  8
0
 62
     0
 10
309.631
 20
19.3987
 30
0.0
 11
309.631
 21
5.39916
 31
0.0
  0
LINE
  8
0
 62
     0
 10
309.631
 20
5.39916
 30
0.0
 11
295.632
 21
5.39916
 31
0.0
  0
LINE
  8
0
 62
     0
 10
295.632
 20
5.39916
 30
0.0
 11
295.632
 21
19.3987
 31
0.0
  0
LINE
  8
0
 62
     0
 10
126.563
 20
24.1611
 30
0.0
 11
126.563
 21
19.4607
 31
0.0
  0
LINE
  8
0
 62
     0
 10
126.563
 20
19.4607
 30
0.0
 11
86.9379
 21
19.4607
 31
0.0
  0
LINE
  8
0
 62
     0
 10
86.9379
 20
19.4607
 30
0.0
 11
86.9379
 21
22.6908
 31
0.0
  0
LINE
  8
0
 62
     0
 10
86.9379
 20
22.6908
 30
0.0
 11
80.1882
 21
22.6908
 31
0.0
  0
LINE
  8
0
 62
     0
 10
80.1882
 20
22.6908
 30
0.0
 11
80.1882
 21
19.4607
 31
0.0
  0
LINE
  8
0
 62
     0
 10
80.1882
 20
19.4607
 30
0.0
 11
79.3627
 21
19.4607
 31
0.0
  0
LINE
  8
0
 62
     0
 10
79.3627
 20
19.4607
 30
0.0
 11
79.3627
 21
16.6605
 31
0.0
  0
LINE
  8
0
 62
     0
 10
79.3627
 20
16.6605
 30
0.0
 11
80.1882
 21
16.6605
 31
0.0
  0
LINE
  8
0
 62
     0
 10
80.1882
 20
16.6605
 30
0.0
 11
80.1882
 21
10.3904
 31
0.0
  0
LINE
  8
0
 62
     0
 10
80.1882
 20
10.3904
 30
0.0
 11
81.9118
 21
10.3904
 31
0.0
  0
LINE
  8
0
 62
     0
 10
81.9118
 20
10.3904
 30
0.0
 11
81.9118
 21
9.19152
 31
0.0
  0
LINE
  8
0
 62
     0
 10
81.9118
 20
9.19152
 30
0.0
 11
85.2124
 21
9.19152
 31
0.0
  0
LINE
  8
0
 62
     0
 10
85.2124
 20
9.19152
 30
0.0
 11
85.2124
 21
10.3904
 31
0.0
  0
LINE
  8
0
 62
     0
 10
85.2124
 20
10.3904
 30
0.0
 11
86.9379
 21
10.3904
 31
0.0
  0
LINE
  8
0
 62
     0
 10
86.9379
 20
10.3904
 30
0.0
 11
86.9379
 21
14.8608
 31
0.0
  0
LINE
  8
0
 62
     0
 10
86.9379
 20
14.8608
 30
0.0
 11
126.563
 21
14.8608
 31
0.0
  0
LINE
  8
0
 62
     0
 10
126.563
 20
14.8608
 30
0.0
 11
126.563
 21
10.1617
 31
0.0
  0
LINE
  8
0
 62
     0
 10
126.563
 20
10.1617
 30
0.0
 11
140.563
 21
10.1617
 31
0.0
  0
LINE
  8
0
 62
     0
 10
140.563
 20
10.1617
 30
0.0
 11
140.563
 21
14.8608
 31
0.0
  0
LINE
  8
0
 62
     0
 10
140.563
 20
14.8608
 30
0.0
 11
180.188
 21
14.8608
 31
0.0
  0
LINE
  8
0
 62
     0
 10
180.188
 20
14.8608
 30
0.0
 11
180.188
 21
10.3904
 31
0.0
  0
LINE
  8
0
 62
     0
 10
180.188
 20
10.3904
 30
0.0
 11
181.912
 21
10.3904
 31
0.0
  0
LINE
  8
0
 62
     0
 10
181.912
 20
10.3904
 30
0.0
 11
181.912
 21
9.19152
 31
0.0
  0
LINE
  8
0
 62
     0
 10
181.912
 20
9.19152
 30
0.0
 11
185.213
 21
9.19152
 31
0.0
  0
LINE
  8
0
 62
     0
 10
185.213
 20
9.19152
 30
0.0
 11
185.213
 21
10.3904
 31
0.0
  0
LINE
  8
0
 62
     0
 10
185.213
 20
10.3904
 30
0.0
 11
186.938
 21
10.3904
 31
0.0
  0
LINE
  8
0
 62
     0
 10
186.938
 20
10.3904
 30
0.0
 11
186.938
 21
16.6605
 31
0.0
  0
LINE
  8
0
 62
     0
 10
186.938
 20
16.6605
 30
0.0
 11
187.762
 21
16.6605
 31
0.0
  0
LINE
  8
0
 62
     0
 10
187.762
 20
16.6605
 30
0.0
 11
187.762
 21
19.4607
 31
0.0
  0
LINE
  8
0
 62
     0
 10
187.762
 20
19.4607
 30
0.0
 11
186.938
 21
19.4607
 31
0.0
  0
LINE
  8
0
 62
     0
 10
186.938
 20
19.4607
 30
0.0
 11
186.938
 21
22.6908
 31
0.0
  0
LINE
  8
0
 62
     0
 10
186.938
 20
22.6908
 30
0.0
 11
180.188
 21
22.6908
 31
0.0
  0
LINE
  8
0
 62
     0
 10
180.188
 20
22.6908
 30
0.0
 11
180.188
 21
19.4607
 31
0.0
  0
LINE
  8
0
 62
     0
 10
180.188
 20
19.4607
 30
0.0
 11
140.563
 21
19.4607
 31
0.0
  0
LINE
  8
0
 62
     0
 10
140.563
 20
19.4607
 30
0.0
 11
140.563
 21
24.1611
 31
0.0
  0
LINE
  8
0
 62
     0
 10
140.563
 20
24.1611
 30
0.0
 11
126.563
 21
24.1611
 31
0.0
  0
LINE
  8
0
 62
     0
 10
7.50066
 20
24.1611
 30
0.0
 11
21.5001
 21
24.1611
 31
0.0
  0
LINE
  8
0
 62
     0
 10
21.5001
 20
24.1611
 30
0.0
 11
21.5001
 21
10.1617
 31
0.0
  0
LINE
  8
0
 62
     0
 10
21.5001
 20
10.1617
 30
0.0
 11
7.50066
 21
10.1617
 31
0.0
  0
LINE
  8
0
 62
     0
 10
7.50066
 20
10.1617
 30
0.0
 11
7.50066
 21
24.1611
 31
0.0
  0
LINE
  8
0
 62
     0
 10
31.3132
 20
24.1611
 30
0.0
 11
45.3125
 21
24.1611
 31
0.0
  0
LINE
  8
0
 62
     0
 10
45.3125
 20
24.1611
 30
0.0
 11
45.3125
 21
10.1617
 31
0.0
  0
LINE
  8
0
 62
     0
 10
45.3125
 20
10.1617
 30
0.0
 11
31.3132
 21
10.1617
 31
0.0
  0
LINE
  8
0
 62
     0
 10
31.3132
 20
10.1617
 30
0.0
 11
31.3132
 21
24.1611
 31
0.0
  0
LINE
  8
0
 62
     0
 10
55.1258
 20
24.1611
 30
0.0
 11
69.125
 21
24.1611
 31
0.0
  0
LINE
  8
0
 62
     0
 10
69.125
 20
24.1611
 30
0.0
 11
69.125
 21
10.1617
 31
0.0
  0
LINE
  8
0
 62
     0
 10
69.125
 20
10.1617
 30
0.0
 11
55.1258
 21
10.1617
 31
0.0
  0
LINE
  8
0
 62
     0
 10
55.1258
 20
10.1617
 30
0.0
 11
55.1258
 21
24.1611
 31
0.0
  0
LINE
  8
0
 62
     0
 10
195.62
 20
24.1611
 30
0.0
 11
209.619
 21
24.1611
 31
0.0
  0
LINE
  8
0
 62
     0
 10
209.619
 20
24.1611
 30
0.0
 11
209.619
 21
10.1617
 31
0.0
  0
LINE
  8
0
 62
     0
 10
209.619
 20
10.1617
 30
0.0
 11
195.62
 21
10.1617
 31
0.0
  0
LINE
  8
0
 62
     0
 10
195.62
 20
10.1617
 30
0.0
 11
195.62
 21
24.1611
 31
0.0
  0
LINE
  8
0
 62
     0
 10
214.67
 20
24.1611
 30
0.0
 11
228.669
 21
24.1611
 31
0.0
  0
LINE
  8
0
 62
     0
 10
228.669
 20
24.1611
 30
0.0
 11
228.669
 21
10.1617
 31
0.0
  0
LINE
  8
0
 62
     0
 10
228.669
 20
10.1617
 30
0.0
 11
214.67
 21
10.1617
 31
0.0
  0
LINE
  8
0
 62
     0
 10
214.67
 20
10.1617
 30
0.0
 11
214.67
 21
24.1611
 31
0.0
  0
LINE
  8
0
 62
     0
 10
233.72
 20
24.1611
 30
0.0
 11
247.719
 21
24.1611
 31
0.0
  0
LINE
  8
0
 62
     0
 10
247.719
 20
24.1611
 30
0.0
 11
247.719
 21
10.1617
 31
0.0
  0
LINE
  8
0
 62
     0
 10
247.719
 20
10.1617
 30
0.0
 11
233.72
 21
10.1617
 31
0.0
  0
LINE
  8
0
 62
     0
 10
233.72
 20
10.1617
 30
0.0
 11
233.72
 21
24.1611
 31
0.0
  0
LINE
  8
0
 62
     0
 10
276.582
 20
38.4485
 30
0.0
 11
290.581
 21
38.4485
 31
0.0
  0
LINE
  8
0
 62
     0
 10
290.581
 20
38.4485
 30
0.0
 11
290.581
 21
24.4492
 31
0.0
  0
LINE
  8
0
 62
     0
 10
290.581
 20
24.4492
 30
0.0
 11
276.582
 21
24.4492
 31
0.0
  0
LINE
  8
0
 62
     0
 10
276.582
 20
24.4492
 30
0.0
 11
276.582
 21
38.4485
 31
0.0
  0
LINE
  8
0
 62
     0
 10
17.0257
 20
43.211
 30
0.0
 11
17.0257
 21
38.5106
 31
0.0
  0
LINE
  8
0
 62
     0
 10
17.0257
 20
38.5106
 30
0.0
 11
15.5002
 21
38.5106
 31
0.0
  0
LINE
  8
0
 62
     0
 10
15.5002
 20
38.5106
 30
0.0
 11
15.5002
 21
41.7407
 31
0.0
  0
LINE
  8
0
 62
     0
 10
15.5002
 20
41.7407
 30
0.0
 11
8.75055
 21
41.7407
 31
0.0
  0
LINE
  8
0
 62
     0
 10
8.75055
 20
41.7407
 30
0.0
 11
8.75055
 21
38.5106
 31
0.0
  0
LINE
  8
0
 62
     0
 10
8.75055
 20
38.5106
 30
0.0
 11
7.92508
 21
38.5106
 31
0.0
  0
LINE
  8
0
 62
     0
 10
7.92508
 20
38.5106
 30
0.0
 11
7.92508
 21
35.7106
 31
0.0
  0
LINE
  8
0
 62
     0
 10
7.92508
 20
35.7106
 30
0.0
 11
8.75055
 21
35.7106
 31
0.0
  0
LINE
  8
0
 62
     0
 10
8.75055
 20
35.7106
 30
0.0
 11
8.75055
 21
29.4404
 31
0.0
  0
LINE
  8
0
 62
     0
 10
8.75055
 20
29.4404
 30
0.0
 11
10.4758
 21
29.4404
 31
0.0
  0
LINE
  8
0
 62
     0
 10
10.4758
 20
29.4404
 30
0.0
 11
10.4758
 21
28.2415
 31
0.0
  0
LINE
  8
0
 62
     0
 10
10.4758
 20
28.2415
 30
0.0
 11
13.7749
 21
28.2415
 31
0.0
  0
LINE
  8
0
 62
     0
 10
13.7749
 20
28.2415
 30
0.0
 11
13.7749
 21
29.4404
 31
0.0
  0
LINE
  8
0
 62
     0
 10
13.7749
 20
29.4404
 30
0.0
 11
15.5002
 21
29.4404
 31
0.0
  0
LINE
  8
0
 62
     0
 10
15.5002
 20
29.4404
 30
0.0
 11
15.5002
 21
33.9108
 31
0.0
  0
LINE
  8
0
 62
     0
 10
15.5002
 20
33.9108
 30
0.0
 11
17.0257
 21
33.9108
 31
0.0
  0
LINE
  8
0
 62
     0
 10
17.0257
 20
33.9108
 30
0.0
 11
17.0257
 21
29.2117
 31
0.0
  0
LINE
  8
0
 62
     0
 10
17.0257
 20
29.2117
 30
0.0
 11
31.0251
 21
29.2117
 31
0.0
  0
LINE
  8
0
 62
     0
 10
31.0251
 20
29.2117
 30
0.0
 11
31.0251
 21
33.9108
 31
0.0
  0
LINE
  8
0
 62
     0
 10
31.0251
 20
33.9108
 30
0.0
 11
32.5506
 21
33.9108
 31
0.0
  0
LINE
  8
0
 62
     0
 10
32.5506
 20
33.9108
 30
0.0
 11
32.5506
 21
29.4404
 31
0.0
  0
LINE
  8
0
 62
     0
 10
32.5506
 20
29.4404
 30
0.0
 11
34.276
 21
29.4404
 31
0.0
  0
LINE
  8
0
 62
     0
 10
34.276
 20
29.4404
 30
0.0
 11
34.276
 21
28.2415
 31
0.0
  0
LINE
  8
0
 62
     0
 10
34.276
 20
28.2415
 30
0.0
 11
37.5751
 21
28.2415
 31
0.0
  0
LINE
  8
0
 62
     0
 10
37.5751
 20
28.2415
 30
0.0
 11
37.5751
 21
29.4404
 31
0.0
  0
LINE
  8
0
 62
     0
 10
37.5751
 20
29.4404
 30
0.0
 11
39.3002
 21
29.4404
 31
0.0
  0
LINE
  8
0
 62
     0
 10
39.3002
 20
29.4404
 30
0.0
 11
39.3002
 21
35.7106
 31
0.0
  0
LINE
  8
0
 62
     0
 10
39.3002
 20
35.7106
 30
0.0
 11
40.1256
 21
35.7106
 31
0.0
  0
LINE
  8
0
 62
     0
 10
40.1256
 20
35.7106
 30
0.0
 11
40.1256
 21
38.5106
 31
0.0
  0
LINE
  8
0
 62
     0
 10
40.1256
 20
38.5106
 30
0.0
 11
39.3002
 21
38.5106
 31
0.0
  0
LINE
  8
0
 62
     0
 10
39.3002
 20
38.5106
 30
0.0
 11
39.3002
 21
41.7407
 31
0.0
  0
LINE
  8
0
 62
     0
 10
39.3002
 20
41.7407
 30
0.0
 11
32.5506
 21
41.7407
 31
0.0
  0
LINE
  8
0
 62
     0
 10
32.5506
 20
41.7407
 30
0.0
 11
32.5506
 21
38.5106
 31
0.0
  0
LINE
  8
0
 62
     0
 10
32.5506
 20
38.5106
 30
0.0
 11
31.0251
 21
38.5106
 31
0.0
  0
LINE
  8
0
 62
     0
 10
31.0251
 20
38.5106
 30
0.0
 11
31.0251
 21
43.211
 31
0.0
  0
LINE
  8
0
 62
     0
 10
31.0251
 20
43.211
 30
0.0
 11
17.0257
 21
43.211
 31
0.0
  0
LINE
  8
0
 62
     0
 10
47.982
 20
43.211
 30
0.0
 11
61.9813
 21
43.211
 31
0.0
  0
LINE
  8
0
 62
     0
 10
61.9813
 20
43.211
 30
0.0
 11
61.9813
 21
29.2117
 31
0.0
  0
LINE
  8
0
 62
     0
 10
61.9813
 20
29.2117
 30
0.0
 11
47.982
 21
29.2117
 31
0.0
  0
LINE
  8
0
 62
     0
 10
47.982
 20
29.2117
 30
0.0
 11
47.982
 21
43.211
 31
0.0
  0
LINE
  8
0
 62
     0
 10
67.032
 20
43.211
 30
0.0
 11
81.0313
 21
43.211
 31
0.0
  0
LINE
  8
0
 62
     0
 10
81.0313
 20
43.211
 30
0.0
 11
81.0313
 21
29.2117
 31
0.0
  0
LINE
  8
0
 62
     0
 10
81.0313
 20
29.2117
 30
0.0
 11
67.032
 21
29.2117
 31
0.0
  0
LINE
  8
0
 62
     0
 10
67.032
 20
29.2117
 30
0.0
 11
67.032
 21
43.211
 31
0.0
  0
LINE
  8
0
 62
     0
 10
86.082
 20
43.211
 30
0.0
 11
100.081
 21
43.211
 31
0.0
  0
LINE
  8
0
 62
     0
 10
100.081
 20
43.211
 30
0.0
 11
100.081
 21
29.2117
 31
0.0
  0
LINE
  8
0
 62
     0
 10
100.081
 20
29.2117
 30
0.0
 11
86.082
 21
29.2117
 31
0.0
  0
LINE
  8
0
 62
     0
 10
86.082
 20
29.2117
 30
0.0
 11
86.082
 21
43.211
 31
0.0
  0
LINE
  8
0
 62
     0
 10
105.132
 20
43.211
 30
0.0
 11
119.131
 21
43.211
 31
0.0
  0
LINE
  8
0
 62
     0
 10
119.131
 20
43.211
 30
0.0
 11
119.131
 21
29.2117
 31
0.0
  0
LINE
  8
0
 62
     0
 10
119.131
 20
29.2117
 30
0.0
 11
105.132
 21
29.2117
 31
0.0
  0
LINE
  8
0
 62
     0
 10
105.132
 20
29.2117
 30
0.0
 11
105.132
 21
43.211
 31
0.0
  0
LINE
  8
0
 62
     0
 10
124.181
 20
43.211
 30
0.0
 11
138.181
 21
43.211
 31
0.0
  0
LINE
  8
0
 62
     0
 10
138.181
 20
43.211
 30
0.0
 11
138.181
 21
29.2117
 31
0.0
  0
LINE
  8
0
 62
     0
 10
138.181
 20
29.2117
 30
0.0
 11
124.181
 21
29.2117
 31
0.0
  0
LINE
  8
0
 62
     0
 10
124.181
 20
29.2117
 30
0.0
 11
124.181
 21
43.211
 31
0.0
  0
LINE
  8
0
 62
     0
 10
143.232
 20
43.211
 30
0.0
 11
157.231
 21
43.211
 31
0.0
  0
LINE
  8
0
 62
     0
 10
157.231
 20
43.211
 30
0.0
 11
157.231
 21
29.2117
 31
0.0
  0
LINE
  8
0
 62
     0
 10
157.231
 20
29.2117
 30
0.0
 11
143.232
 21
29.2117
 31
0.0
  0
LINE
  8
0
 62
     0
 10
143.232
 20
29.2117
 30
0.0
 11
143.232
 21
43.211
 31
0.0
  0
LINE
  8
0
 62
     0
 10
162.282
 20
43.211
 30
0.0
 11
176.281
 21
43.211
 31
0.0
  0
LINE
  8
0
 62
     0
 10
176.281
 20
43.211
 30
0.0
 11
176.281
 21
29.2117
 31
0.0
  0
LINE
  8
0
 62
     0
 10
176.281
 20
29.2117
 30
0.0
 11
162.282
 21
29.2117
 31
0.0
  0
LINE
  8
0
 62
     0
 10
162.282
 20
29.2117
 30
0.0
 11
162.282
 21
43.211
 31
0.0
  0
LINE
  8
0
 62
     0
 10
181.332
 20
43.211
 30
0.0
 11
195.331
 21
43.211
 31
0.0
  0
LINE
  8
0
 62
     0
 10
195.331
 20
43.211
 30
0.0
 11
195.331
 21
29.2117
 31
0.0
  0
LINE
  8
0
 62
     0
 10
195.331
 20
29.2117
 30
0.0
 11
181.332
 21
29.2117
 31
0.0
  0
LINE
  8
0
 62
     0
 10
181.332
 20
29.2117
 30
0.0
 11
181.332
 21
43.211
 31
0.0
  0
LINE
  8
0
 62
     0
 10
200.382
 20
43.211
 30
0.0
 11
214.381
 21
43.211
 31
0.0
  0
LINE
  8
0
 62
     0
 10
214.381
 20
43.211
 30
0.0
 11
214.381
 21
29.2117
 31
0.0
  0
LINE
  8
0
 62
     0
 10
214.381
 20
29.2117
 30
0.0
 11
200.382
 21
29.2117
 31
0.0
  0
LINE
  8
0
 62
     0
 10
200.382
 20
29.2117
 30
0.0
 11
200.382
 21
43.211
 31
0.0
  0
LINE
  8
0
 62
     0
 10
219.432
 20
43.211
 30
0.0
 11
233.431
 21
43.211
 31
0.0
  0
LINE
  8
0
 62
     0
 10
233.431
 20
43.211
 30
0.0
 11
233.431
 21
29.2117
 31
0.0
  0
LINE
  8
0
 62
     0
 10
233.431
 20
29.2117
 30
0.0
 11
219.432
 21
29.2117
 31
0.0
  0
LINE
  8
0
 62
     0
 10
219.432
 20
29.2117
 30
0.0
 11
219.432
 21
43.211
 31
0.0
  0
LINE
  8
0
 62
     0
 10
245.626
 20
43.211
 30
0.0
 11
259.625
 21
43.211
 31
0.0
  0
LINE
  8
0
 62
     0
 10
259.625
 20
43.211
 30
0.0
 11
259.625
 21
29.2117
 31
0.0
  0
LINE
  8
0
 62
     0
 10
259.625
 20
29.2117
 30
0.0
 11
245.626
 21
29.2117
 31
0.0
  0
LINE
  8
0
 62
     0
 10
245.626
 20
29.2117
 30
0.0
 11
245.626
 21
43.211
 31
0.0
  0
LINE
  8
0
 62
     0
 10
300.395
 20
43.211
 30
0.0
 11
314.394
 21
43.211
 31
0.0
  0
LINE
  8
0
 62
     0
 10
314.394
 20
43.211
 30
0.0
 11
314.394
 21
29.2117
 31
0.0
  0
LINE
  8
0
 62
     0
 10
314.394
 20
29.2117
 30
0.0
 11
300.395
 21
29.2117
 31
0.0
  0
LINE
  8
0
 62
     0
 10
300.395
 20
29.2117
 30
0.0
 11
300.395
 21
43.211
 31
0.0
  0
LINE
  8
0
 62
     0
 10
259.913
 20
62.261
 30
0.0
 11
259.913
 21
57.5606
 31
0.0
  0
LINE
  8
0
 62
     0
 10
259.913
 20
57.5606
 30
0.0
 11
258.388
 21
57.5606
 31
0.0
  0
LINE
  8
0
 62
     0
 10
258.388
 20
57.5606
 30
0.0
 11
258.388
 21
60.7907
 31
0.0
  0
LINE
  8
0
 62
     0
 10
258.388
 20
60.7907
 30
0.0
 11
251.638
 21
60.7907
 31
0.0
  0
LINE
  8
0
 62
     0
 10
251.638
 20
60.7907
 30
0.0
 11
251.638
 21
57.5606
 31
0.0
  0
LINE
  8
0
 62
     0
 10
251.638
 20
57.5606
 30
0.0
 11
250.813
 21
57.5606
 31
0.0
  0
LINE
  8
0
 62
     0
 10
250.813
 20
57.5606
 30
0.0
 11
250.813
 21
54.7606
 31
0.0
  0
LINE
  8
0
 62
     0
 10
250.813
 20
54.7606
 30
0.0
 11
251.638
 21
54.7606
 31
0.0
  0
LINE
  8
0
 62
     0
 10
251.638
 20
54.7606
 30
0.0
 11
251.638
 21
48.4904
 31
0.0
  0
LINE
  8
0
 62
     0
 10
251.638
 20
48.4904
 30
0.0
 11
253.362
 21
48.4904
 31
0.0
  0
LINE
  8
0
 62
     0
 10
253.362
 20
48.4904
 30
0.0
 11
253.362
 21
47.2916
 31
0.0
  0
LINE
  8
0
 62
     0
 10
253.362
 20
47.2916
 30
0.0
 11
256.661
 21
47.2916
 31
0.0
  0
LINE
  8
0
 62
     0
 10
256.661
 20
47.2916
 30
0.0
 11
256.661
 21
48.4904
 31
0.0
  0
LINE
  8
0
 62
     0
 10
256.661
 20
48.4904
 30
0.0
 11
258.388
 21
48.4904
 31
0.0
  0
LINE
  8
0
 62
     0
 10
258.388
 20
48.4904
 30
0.0
 11
258.388
 21
52.9608
 31
0.0
  0
LINE
  8
0
 62
     0
 10
258.388
 20
52.9608
 30
0.0
 11
259.913
 21
52.9608
 31
0.0
  0
LINE
  8
0
 62
     0
 10
259.913
 20
52.9608
 30
0.0
 11
259.913
 21
48.2618
 31
0.0
  0
LINE
  8
0
 62
     0
 10
259.913
 20
48.2618
 30
0.0
 11
273.913
 21
48.2618
 31
0.0
  0
LINE
  8
0
 62
     0
 10
273.913
 20
48.2618
 30
0.0
 11
273.913
 21
52.9608
 31
0.0
  0
LINE
  8
0
 62
     0
 10
273.913
 20
52.9608
 30
0.0
 11
275.438
 21
52.9608
 31
0.0
  0
LINE
  8
0
 62
     0
 10
275.438
 20
52.9608
 30
0.0
 11
275.438
 21
48.4904
 31
0.0
  0
LINE
  8
0
 62
     0
 10
275.438
 20
48.4904
 30
0.0
 11
277.162
 21
48.4904
 31
0.0
  0
LINE
  8
0
 62
     0
 10
277.162
 20
48.4904
 30
0.0
 11
277.162
 21
47.2916
 31
0.0
  0
LINE
  8
0
 62
     0
 10
277.162
 20
47.2916
 30
0.0
 11
280.463
 21
47.2916
 31
0.0
  0
LINE
  8
0
 62
     0
 10
280.463
 20
47.2916
 30
0.0
 11
280.463
 21
48.4904
 31
0.0
  0
LINE
  8
0
 62
     0
 10
280.463
 20
48.4904
 30
0.0
 11
282.188
 21
48.4904
 31
0.0
  0
LINE
  8
0
 62
     0
 10
282.188
 20
48.4904
 30
0.0
 11
282.188
 21
54.7606
 31
0.0
  0
LINE
  8
0
 62
     0
 10
282.188
 20
54.7606
 30
0.0
 11
283.012
 21
54.7606
 31
0.0
  0
LINE
  8
0
 62
     0
 10
283.012
 20
54.7606
 30
0.0
 11
283.012
 21
57.5606
 31
0.0
  0
LINE
  8
0
 62
     0
 10
283.012
 20
57.5606
 30
0.0
 11
282.188
 21
57.5606
 31
0.0
  0
LINE
  8
0
 62
     0
 10
282.188
 20
57.5606
 30
0.0
 11
282.188
 21
60.7907
 31
0.0
  0
LINE
  8
0
 62
     0
 10
282.188
 20
60.7907
 30
0.0
 11
275.438
 21
60.7907
 31
0.0
  0
LINE
  8
0
 62
     0
 10
275.438
 20
60.7907
 30
0.0
 11
275.438
 21
57.5606
 31
0.0
  0
LINE
  8
0
 62
     0
 10
275.438
 20
57.5606
 30
0.0
 11
273.913
 21
57.5606
 31
0.0
  0
LINE
  8
0
 62
     0
 10
273.913
 20
57.5606
 30
0.0
 11
273.913
 21
62.261
 31
0.0
  0
LINE
  8
0
 62
     0
 10
273.913
 20
62.261
 30
0.0
 11
259.913
 21
62.261
 31
0.0
  0
LINE
  8
0
 62
     0
 10
12.2632
 20
62.261
 30
0.0
 11
26.2626
 21
62.261
 31
0.0
  0
LINE
  8
0
 62
     0
 10
26.2626
 20
62.261
 30
0.0
 11
26.2626
 21
48.2618
 31
0.0
  0
LINE
  8
0
 62
     0
 10
26.2626
 20
48.2618
 30
0.0
 11
12.2632
 21
48.2618
 31
0.0
  0
LINE
  8
0
 62
     0
 10
12.2632
 20
48.2618
 30
0.0
 11
12.2632
 21
62.261
 31
0.0
  0
LINE
  8
0
 62
     0
 10
38.457
 20
62.261
 30
0.0
 11
52.4563
 21
62.261
 31
0.0
  0
LINE
  8
0
 62
     0
 10
52.4563
 20
62.261
 30
0.0
 11
52.4563
 21
48.2618
 31
0.0
  0
LINE
  8
0
 62
     0
 10
52.4563
 20
48.2618
 30
0.0
 11
38.457
 21
48.2618
 31
0.0
  0
LINE
  8
0
 62
     0
 10
38.457
 20
48.2618
 30
0.0
 11
38.457
 21
62.261
 31
0.0
  0
LINE
  8
0
 62
     0
 10
57.507
 20
62.261
 30
0.0
 11
71.5063
 21
62.261
 31
0.0
  0
LINE
  8
0
 62
     0
 10
71.5063
 20
62.261
 30
0.0
 11
71.5063
 21
48.2618
 31
0.0
  0
LINE
  8
0
 62
     0
 10
71.5063
 20
48.2618
 30
0.0
 11
57.507
 21
48.2618
 31
0.0
  0
LINE
  8
0
 62
     0
 10
57.507
 20
48.2618
 30
0.0
 11
57.507
 21
62.261
 31
0.0
  0
LINE
  8
0
 62
     0
 10
76.557
 20
62.261
 30
0.0
 11
90.5563
 21
62.261
 31
0.0
  0
LINE
  8
0
 62
     0
 10
90.5563
 20
62.261
 30
0.0
 11
90.5563
 21
48.2618
 31
0.0
  0
LINE
  8
0
 62
     0
 10
90.5563
 20
48.2618
 30
0.0
 11
76.557
 21
48.2618
 31
0.0
  0
LINE
  8
0
 62
     0
 10
76.557
 20
48.2618
 30
0.0
 11
76.557
 21
62.261
 31
0.0
  0
LINE
  8
0
 62
     0
 10
95.607
 20
62.261
 30
0.0
 11
109.606
 21
62.261
 31
0.0
  0
LINE
  8
0
 62
     0
 10
109.606
 20
62.261
 30
0.0
 11
109.606
 21
48.2618
 31
0.0
  0
LINE
  8
0
 62
     0
 10
109.606
 20
48.2618
 30
0.0
 11
95.607
 21
48.2618
 31
0.0
  0
LINE
  8
0
 62
     0
 10
95.607
 20
48.2618
 30
0.0
 11
95.607
 21
62.261
 31
0.0
  0
LINE
  8
0
 62
     0
 10
114.657
 20
62.261
 30
0.0
 11
128.656
 21
62.261
 31
0.0
  0
LINE
  8
0
 62
     0
 10
128.656
 20
62.261
 30
0.0
 11
128.656
 21
48.2618
 31
0.0
  0
LINE
  8
0
 62
     0
 10
128.656
 20
48.2618
 30
0.0
 11
114.657
 21
48.2618
 31
0.0
  0
LINE
  8
0
 62
     0
 10
114.657
 20
48.2618
 30
0.0
 11
114.657
 21
62.261
 31
0.0
  0
LINE
  8
0
 62
     0
 10
133.707
 20
62.261
 30
0.0
 11
147.706
 21
62.261
 31
0.0
  0
LINE
  8
0
 62
     0
 10
147.706
 20
62.261
 30
0.0
 11
147.706
 21
48.2618
 31
0.0
  0
LINE
  8
0
 62
     0
 10
147.706
 20
48.2618
 30
0.0
 11
133.707
 21
48.2618
 31
0.0
  0
LINE
  8
0
 62
     0
 10
133.707
 20
48.2618
 30
0.0
 11
133.707
 21
62.261
 31
0.0
  0
LINE
  8
0
 62
     0
 10
152.757
 20
62.261
 30
0.0
 11
166.756
 21
62.261
 31
0.0
  0
LINE
  8
0
 62
     0
 10
166.756
 20
62.261
 30
0.0
 11
166.756
 21
48.2618
 31
0.0
  0
LINE
  8
0
 62
     0
 10
166.756
 20
48.2618
 30
0.0
 11
152.757
 21
48.2618
 31
0.0
  0
LINE
  8
0
 62
     0
 10
152.757
 20
48.2618
 30
0.0
 11
152.757
 21
62.261
 31
0.0
  0
LINE
  8
0
 62
     0
 10
171.807
 20
62.261
 30
0.0
 11
185.806
 21
62.261
 31
0.0
  0
LINE
  8
0
 62
     0
 10
185.806
 20
62.261
 30
0.0
 11
185.806
 21
48.2618
 31
0.0
  0
LINE
  8
0
 62
     0
 10
185.806
 20
48.2618
 30
0.0
 11
171.807
 21
48.2618
 31
0.0
  0
LINE
  8
0
 62
     0
 10
171.807
 20
48.2618
 30
0.0
 11
171.807
 21
62.261
 31
0.0
  0
LINE
  8
0
 62
     0
 10
190.857
 20
62.261
 30
0.0
 11
204.856
 21
62.261
 31
0.0
  0
LINE
  8
0
 62
     0
 10
204.856
 20
62.261
 30
0.0
 11
204.856
 21
48.2618
 31
0.0
  0
LINE
  8
0
 62
     0
 10
204.856
 20
48.2618
 30
0.0
 11
190.857
 21
48.2618
 31
0.0
  0
LINE
  8
0
 62
     0
 10
190.857
 20
48.2618
 30
0.0
 11
190.857
 21
62.261
 31
0.0
  0
LINE
  8
0
 62
     0
 10
209.907
 20
62.261
 30
0.0
 11
223.906
 21
62.261
 31
0.0
  0
LINE
  8
0
 62
     0
 10
223.906
 20
62.261
 30
0.0
 11
223.906
 21
48.2618
 31
0.0
  0
LINE
  8
0
 62
     0
 10
223.906
 20
48.2618
 30
0.0
 11
209.907
 21
48.2618
 31
0.0
  0
LINE
  8
0
 62
     0
 10
209.907
 20
48.2618
 30
0.0
 11
209.907
 21
62.261
 31
0.0
  0
LINE
  8
0
 62
     0
 10
228.957
 20
62.261
 30
0.0
 11
242.956
 21
62.261
 31
0.0
  0
LINE
  8
0
 62
     0
 10
242.956
 20
62.261
 30
0.0
 11
242.956
 21
48.2618
 31
0.0
  0
LINE
  8
0
 62
     0
 10
242.956
 20
48.2618
 30
0.0
 11
228.957
 21
48.2618
 31
0.0
  0
LINE
  8
0
 62
     0
 10
228.957
 20
48.2618
 30
0.0
 11
228.957
 21
62.261
 31
0.0
  0
LINE
  8
0
 62
     0
 10
300.395
 20
62.261
 30
0.0
 11
314.394
 21
62.261
 31
0.0
  0
LINE
  8
0
 62
     0
 10
314.394
 20
62.261
 30
0.0
 11
314.394
 21
48.2618
 31
0.0
  0
LINE
  8
0
 62
     0
 10
314.394
 20
48.2618
 30
0.0
 11
300.395
 21
48.2618
 31
0.0
  0
LINE
  8
0
 62
     0
 10
300.395
 20
48.2618
 30
0.0
 11
300.395
 21
62.261
 31
0.0
  0
LINE
  8
0
 62
     0
 10
9.88191
 20
81.311
 30
0.0
 11
23.8814
 21
81.311
 31
0.0
  0
LINE
  8
0
 62
     0
 10
23.8814
 20
81.311
 30
0.0
 11
23.8814
 21
67.3118
 31
0.0
  0
LINE
  8
0
 62
     0
 10
23.8814
 20
67.3118
 30
0.0
 11
9.88191
 21
67.3118
 31
0.0
  0
LINE
  8
0
 62
     0
 10
9.88191
 20
67.3118
 30
0.0
 11
9.88191
 21
81.311
 31
0.0
  0
LINE
  8
0
 62
     0
 10
33.6944
 20
81.311
 30
0.0
 11
47.6938
 21
81.311
 31
0.0
  0
LINE
  8
0
 62
     0
 10
47.6938
 20
81.311
 30
0.0
 11
47.6938
 21
67.3118
 31
0.0
  0
LINE
  8
0
 62
     0
 10
47.6938
 20
67.3118
 30
0.0
 11
33.6944
 21
67.3118
 31
0.0
  0
LINE
  8
0
 62
     0
 10
33.6944
 20
67.3118
 30
0.0
 11
33.6944
 21
81.311
 31
0.0
  0
LINE
  8
0
 62
     0
 10
52.7445
 20
81.311
 30
0.0
 11
66.7438
 21
81.311
 31
0.0
  0
LINE
  8
0
 62
     0
 10
66.7438
 20
81.311
 30
0.0
 11
66.7438
 21
67.3118
 31
0.0
  0
LINE
  8
0
 62
     0
 10
66.7438
 20
67.3118
 30
0.0
 11
52.7445
 21
67.3118
 31
0.0
  0
LINE
  8
0
 62
     0
 10
52.7445
 20
67.3118
 30
0.0
 11
52.7445
 21
81.311
 31
0.0
  0
LINE
  8
0
 62
     0
 10
71.7945
 20
81.311
 30
0.0
 11
85.7938
 21
81.311
 31
0.0
  0
LINE
  8
0
 62
     0
 10
85.7938
 20
81.311
 30
0.0
 11
85.7938
 21
67.3118
 31
0.0
  0
LINE
  8
0
 62
     0
 10
85.7938
 20
67.3118
 30
0.0
 11
71.7945
 21
67.3118
 31
0.0
  0
LINE
  8
0
 62
     0
 10
71.7945
 20
67.3118
 30
0.0
 11
71.7945
 21
81.311
 31
0.0
  0
LINE
  8
0
 62
     0
 10
90.8445
 20
81.311
 30
0.0
 11
104.844
 21
81.311
 31
0.0
  0
LINE
  8
0
 62
     0
 10
104.844
 20
81.311
 30
0.0
 11
104.844
 21
67.3118
 31
0.0
  0
LINE
  8
0
 62
     0
 10
104.844
 20
67.3118
 30
0.0
 11
90.8445
 21
67.3118
 31
0.0
  0
LINE
  8
0
 62
     0
 10
90.8445
 20
67.3118
 30
0.0
 11
90.8445
 21
81.311
 31
0.0
  0
LINE
  8
0
 62
     0
 10
109.895
 20
81.311
 30
0.0
 11
123.894
 21
81.311
 31
0.0
  0
LINE
  8
0
 62
     0
 10
123.894
 20
81.311
 30
0.0
 11
123.894
 21
67.3118
 31
0.0
  0
LINE
  8
0
 62
     0
 10
123.894
 20
67.3118
 30
0.0
 11
109.895
 21
67.3118
 31
0.0
  0
LINE
  8
0
 62
     0
 10
109.895
 20
67.3118
 30
0.0
 11
109.895
 21
81.311
 31
0.0
  0
LINE
  8
0
 62
     0
 10
128.945
 20
81.311
 30
0.0
 11
142.944
 21
81.311
 31
0.0
  0
LINE
  8
0
 62
     0
 10
142.944
 20
81.311
 30
0.0
 11
142.944
 21
67.3118
 31
0.0
  0
LINE
  8
0
 62
     0
 10
142.944
 20
67.3118
 30
0.0
 11
128.945
 21
67.3118
 31
0.0
  0
LINE
  8
0
 62
     0
 10
128.945
 20
67.3118
 30
0.0
 11
128.945
 21
81.311
 31
0.0
  0
LINE
  8
0
 62
     0
 10
147.995
 20
81.311
 30
0.0
 11
161.994
 21
81.311
 31
0.0
  0
LINE
  8
0
 62
     0
 10
161.994
 20
81.311
 30
0.0
 11
161.994
 21
67.3118
 31
0.0
  0
LINE
  8
0
 62
     0
 10
161.994
 20
67.3118
 30
0.0
 11
147.995
 21
67.3118
 31
0.0
  0
LINE
  8
0
 62
     0
 10
147.995
 20
67.3118
 30
0.0
 11
147.995
 21
81.311
 31
0.0
  0
LINE
  8
0
 62
     0
 10
167.045
 20
81.311
 30
0.0
 11
181.044
 21
81.311
 31
0.0
  0
LINE
  8
0
 62
     0
 10
181.044
 20
81.311
 30
0.0
 11
181.044
 21
67.3118
 31
0.0
  0
LINE
  8
0
 62
     0
 10
181.044
 20
67.3118
 30
0.0
 11
167.045
 21
67.3118
 31
0.0
  0
LINE
  8
0
 62
     0
 10
167.045
 20
67.3118
 30
0.0
 11
167.045
 21
81.311
 31
0.0
  0
LINE
  8
0
 62
     0
 10
186.095
 20
81.311
 30
0.0
 11
200.094
 21
81.311
 31
0.0
  0
LINE
  8
0
 62
     0
 10
200.094
 20
81.311
 30
0.0
 11
200.094
 21
67.3118
 31
0.0
  0
LINE
  8
0
 62
     0
 10
200.094
 20
67.3118
 30
0.0
 11
186.095
 21
67.3118
 31
0.0
  0
LINE
  8
0
 62
     0
 10
186.095
 20
67.3118
 30
0.0
 11
186.095
 21
81.311
 31
0.0
  0
LINE
  8
0
 62
     0
 10
205.145
 20
81.311
 30
0.0
 11
219.144
 21
81.311
 31
0.0
  0
LINE
  8
0
 62
     0
 10
219.144
 20
81.311
 30
0.0
 11
219.144
 21
67.3118
 31
0.0
  0
LINE
  8
0
 62
     0
 10
219.144
 20
67.3118
 30
0.0
 11
205.145
 21
67.3118
 31
0.0
  0
LINE
  8
0
 62
     0
 10
205.145
 20
67.3118
 30
0.0
 11
205.145
 21
81.311
 31
0.0
  0
LINE
  8
0
 62
     0
 10
224.195
 20
81.311
 30
0.0
 11
238.194
 21
81.311
 31
0.0
  0
LINE
  8
0
 62
     0
 10
238.194
 20
81.311
 30
0.0
 11
238.194
 21
67.3118
 31
0.0
  0
LINE
  8
0
 62
     0
 10
238.194
 20
67.3118
 30
0.0
 11
224.195
 21
67.3118
 31
0.0
  0
LINE
  8
0
 62
     0
 10
224.195
 20
67.3118
 30
0.0
 11
224.195
 21
81.311
 31
0.0
  0
LINE
  8
0
 62
     0
 10
243.245
 20
81.311
 30
0.0
 11
257.244
 21
81.311
 31
0.0
  0
LINE
  8
0
 62
     0
 10
257.244
 20
81.311
 30
0.0
 11
257.244
 21
67.3118
 31
0.0
  0
LINE
  8
0
 62
     0
 10
257.244
 20
67.3118
 30
0.0
 11
243.245
 21
67.3118
 31
0.0
  0
LINE
  8
0
 62
     0
 10
243.245
 20
67.3118
 30
0.0
 11
243.245
 21
81.311
 31
0.0
  0
LINE
  8
0
 62
     0
 10
267.057
 20
81.311
 30
0.0
 11
281.056
 21
81.311
 31
0.0
  0
LINE
  8
0
 62
     0
 10
281.056
 20
81.311
 30
0.0
 11
281.056
 21
67.3118
 31
0.0
  0
LINE
  8
0
 62
     0
 10
281.056
 20
67.3118
 30
0.0
 11
267.057
 21
67.3118
 31
0.0
  0
LINE
  8
0
 62
     0
 10
267.057
 20
67.3118
 30
0.0
 11
267.057
 21
81.311
 31
0.0
  0
LINE
  8
0
 62
     0
 10
300.395
 20
81.311
 30
0.0
 11
314.394
 21
81.311
 31
0.0
  0
LINE
  8
0
 62
     0
 10
314.394
 20
81.311
 30
0.0
 11
314.394
 21
67.3118
 31
0.0
  0
LINE
  8
0
 62
     0
 10
314.394
 20
67.3118
 30
0.0
 11
300.395
 21
67.3118
 31
0.0
  0
LINE
  8
0
 62
     0
 10
300.395
 20
67.3118
 30
0.0
 11
300.395
 21
81.311
 31
0.0
  0
LINE
  8
0
 62
     0
 10
262.295
 20
100.361
 30
0.0
 11
262.295
 21
95.6606
 31
0.0
  0
LINE
  8
0
 62
     0
 10
262.295
 20
95.6606
 30
0.0
 11
260.769
 21
95.6606
 31
0.0
  0
LINE
  8
0
 62
     0
 10
260.769
 20
95.6606
 30
0.0
 11
260.769
 21
98.8907
 31
0.0
  0
LINE
  8
0
 62
     0
 10
260.769
 20
98.8907
 30
0.0
 11
254.019
 21
98.8907
 31
0.0
  0
LINE
  8
0
 62
     0
 10
254.019
 20
98.8907
 30
0.0
 11
254.019
 21
95.6606
 31
0.0
  0
LINE
  8
0
 62
     0
 10
254.019
 20
95.6606
 30
0.0
 11
253.194
 21
95.6606
 31
0.0
  0
LINE
  8
0
 62
     0
 10
253.194
 20
95.6606
 30
0.0
 11
253.194
 21
92.8606
 31
0.0
  0
LINE
  8
0
 62
     0
 10
253.194
 20
92.8606
 30
0.0
 11
254.019
 21
92.8606
 31
0.0
  0
LINE
  8
0
 62
     0
 10
254.019
 20
92.8606
 30
0.0
 11
254.019
 21
86.5904
 31
0.0
  0
LINE
  8
0
 62
     0
 10
254.019
 20
86.5904
 30
0.0
 11
255.743
 21
86.5904
 31
0.0
  0
LINE
  8
0
 62
     0
 10
255.743
 20
86.5904
 30
0.0
 11
255.743
 21
85.3916
 31
0.0
  0
LINE
  8
0
 62
     0
 10
255.743
 20
85.3916
 30
0.0
 11
259.045
 21
85.3916
 31
0.0
  0
LINE
  8
0
 62
     0
 10
259.045
 20
85.3916
 30
0.0
 11
259.045
 21
86.5904
 31
0.0
  0
LINE
  8
0
 62
     0
 10
259.045
 20
86.5904
 30
0.0
 11
260.769
 21
86.5904
 31
0.0
  0
LINE
  8
0
 62
     0
 10
260.769
 20
86.5904
 30
0.0
 11
260.769
 21
91.0608
 31
0.0
  0
LINE
  8
0
 62
     0
 10
260.769
 20
91.0608
 30
0.0
 11
262.295
 21
91.0608
 31
0.0
  0
LINE
  8
0
 62
     0
 10
262.295
 20
91.0608
 30
0.0
 11
262.295
 21
86.3618
 31
0.0
  0
LINE
  8
0
 62
     0
 10
262.295
 20
86.3618
 30
0.0
 11
276.294
 21
86.3618
 31
0.0
  0
LINE
  8
0
 62
     0
 10
276.294
 20
86.3618
 30
0.0
 11
276.294
 21
91.0608
 31
0.0
  0
LINE
  8
0
 62
     0
 10
276.294
 20
91.0608
 30
0.0
 11
277.82
 21
91.0608
 31
0.0
  0
LINE
  8
0
 62
     0
 10
277.82
 20
91.0608
 30
0.0
 11
277.82
 21
86.5904
 31
0.0
  0
LINE
  8
0
 62
     0
 10
277.82
 20
86.5904
 30
0.0
 11
279.545
 21
86.5904
 31
0.0
  0
LINE
  8
0
 62
     0
 10
279.545
 20
86.5904
 30
0.0
 11
279.545
 21
85.3916
 31
0.0
  0
LINE
  8
0
 62
     0
 10
279.545
 20
85.3916
 30
0.0
 11
282.845
 21
85.3916
 31
0.0
  0
LINE
  8
0
 62
     0
 10
282.845
 20
85.3916
 30
0.0
 11
282.845
 21
86.5904
 31
0.0
  0
LINE
  8
0
 62
     0
 10
282.845
 20
86.5904
 30
0.0
 11
284.569
 21
86.5904
 31
0.0
  0
LINE
  8
0
 62
     0
 10
284.569
 20
86.5904
 30
0.0
 11
284.569
 21
92.8606
 31
0.0
  0
LINE
  8
0
 62
     0
 10
284.569
 20
92.8606
 30
0.0
 11
285.394
 21
92.8606
 31
0.0
  0
LINE
  8
0
 62
     0
 10
285.394
 20
92.8606
 30
0.0
 11
285.394
 21
95.6606
 31
0.0
  0
LINE
  8
0
 62
     0
 10
285.394
 20
95.6606
 30
0.0
 11
284.569
 21
95.6606
 31
0.0
  0
LINE
  8
0
 62
     0
 10
284.569
 20
95.6606
 30
0.0
 11
284.569
 21
98.8907
 31
0.0
  0
LINE
  8
0
 62
     0
 10
284.569
 20
98.8907
 30
0.0
 11
277.82
 21
98.8907
 31
0.0
  0
LINE
  8
0
 62
     0
 10
277.82
 20
98.8907
 30
0.0
 11
277.82
 21
95.6606
 31
0.0
  0
LINE
  8
0
 62
     0
 10
277.82
 20
95.6606
 30
0.0
 11
276.294
 21
95.6606
 31
0.0
  0
LINE
  8
0
 62
     0
 10
276.294
 20
95.6606
 30
0.0
 11
276.294
 21
100.361
 31
0.0
  0
LINE
  8
0
 62
     0
 10
276.294
 20
100.361
 30
0.0
 11
262.295
 21
100.361
 31
0.0
  0
LINE
  8
0
 62
     0
 10
5.11803
 20
100.361
 30
0.0
 11
19.1189
 21
100.361
 31
0.0
  0
LINE
  8
0
 62
     0
 10
19.1189
 20
100.361
 30
0.0
 11
19.1189
 21
86.3618
 31
0.0
  0
LINE
  8
0
 62
     0
 10
19.1189
 20
86.3618
 30
0.0
 11
5.11803
 21
86.3618
 31
0.0
  0
LINE
  8
0
 62
     0
 10
5.11803
 20
86.3618
 30
0.0
 11
5.11803
 21
100.361
 31
0.0
  0
LINE
  8
0
 62
     0
 10
24.1694
 20
100.361
 30
0.0
 11
38.1688
 21
100.361
 31
0.0
  0
LINE
  8
0
 62
     0
 10
38.1688
 20
100.361
 30
0.0
 11
38.1688
 21
86.3618
 31
0.0
  0
LINE
  8
0
 62
     0
 10
38.1688
 20
86.3618
 30
0.0
 11
24.1694
 21
86.3618
 31
0.0
  0
LINE
  8
0
 62
     0
 10
24.1694
 20
86.3618
 30
0.0
 11
24.1694
 21
100.361
 31
0.0
  0
LINE
  8
0
 62
     0
 10
43.2195
 20
100.361
 30
0.0
 11
57.2188
 21
100.361
 31
0.0
  0
LINE
  8
0
 62
     0
 10
57.2188
 20
100.361
 30
0.0
 11
57.2188
 21
86.3618
 31
0.0
  0
LINE
  8
0
 62
     0
 10
57.2188
 20
86.3618
 30
0.0
 11
43.2195
 21
86.3618
 31
0.0
  0
LINE
  8
0
 62
     0
 10
43.2195
 20
86.3618
 30
0.0
 11
43.2195
 21
100.361
 31
0.0
  0
LINE
  8
0
 62
     0
 10
62.2695
 20
100.361
 30
0.0
 11
76.2688
 21
100.361
 31
0.0
  0
LINE
  8
0
 62
     0
 10
76.2688
 20
100.361
 30
0.0
 11
76.2688
 21
86.3618
 31
0.0
  0
LINE
  8
0
 62
     0
 10
76.2688
 20
86.3618
 30
0.0
 11
62.2695
 21
86.3618
 31
0.0
  0
LINE
  8
0
 62
     0
 10
62.2695
 20
86.3618
 30
0.0
 11
62.2695
 21
100.361
 31
0.0
  0
LINE
  8
0
 62
     0
 10
81.3195
 20
100.361
 30
0.0
 11
95.3188
 21
100.361
 31
0.0
  0
LINE
  8
0
 62
     0
 10
95.3188
 20
100.361
 30
0.0
 11
95.3188
 21
86.3618
 31
0.0
  0
LINE
  8
0
 62
     0
 10
95.3188
 20
86.3618
 30
0.0
 11
81.3195
 21
86.3618
 31
0.0
  0
LINE
  8
0
 62
     0
 10
81.3195
 20
86.3618
 30
0.0
 11
81.3195
 21
100.361
 31
0.0
  0
LINE
  8
0
 62
     0
 10
100.368
 20
100.361
 30
0.0
 11
114.369
 21
100.361
 31
0.0
  0
LINE
  8
0
 62
     0
 10
114.369
 20
100.361
 30
0.0
 11
114.369
 21
86.3618
 31
0.0
  0
LINE
  8
0
 62
     0
 10
114.369
 20
86.3618
 30
0.0
 11
100.368
 21
86.3618
 31
0.0
  0
LINE
  8
0
 62
     0
 10
100.368
 20
86.3618
 30
0.0
 11
100.368
 21
100.361
 31
0.0
  0
LINE
  8
0
 62
     0
 10
119.418
 20
100.361
 30
0.0
 11
133.419
 21
100.361
 31
0.0
  0
LINE
  8
0
 62
     0
 10
133.419
 20
100.361
 30
0.0
 11
133.419
 21
86.3618
 31
0.0
  0
LINE
  8
0
 62
     0
 10
133.419
 20
86.3618
 30
0.0
 11
119.418
 21
86.3618
 31
0.0
  0
LINE
  8
0
 62
     0
 10
119.418
 20
86.3618
 30
0.0
 11
119.418
 21
100.361
 31
0.0
  0
LINE
  8
0
 62
     0
 10
138.47
 20
100.361
 30
0.0
 11
152.469
 21
100.361
 31
0.0
  0
LINE
  8
0
 62
     0
 10
152.469
 20
100.361
 30
0.0
 11
152.469
 21
86.3618
 31
0.0
  0
LINE
  8
0
 62
     0
 10
152.469
 20
86.3618
 30
0.0
 11
138.47
 21
86.3618
 31
0.0
  0
LINE
  8
0
 62
     0
 10
138.47
 20
86.3618
 30
0.0
 11
138.47
 21
100.361
 31
0.0
  0
LINE
  8
0
 62
     0
 10
157.52
 20
100.361
 30
0.0
 11
171.519
 21
100.361
 31
0.0
  0
LINE
  8
0
 62
     0
 10
171.519
 20
100.361
 30
0.0
 11
171.519
 21
86.3618
 31
0.0
  0
LINE
  8
0
 62
     0
 10
171.519
 20
86.3618
 30
0.0
 11
157.52
 21
86.3618
 31
0.0
  0
LINE
  8
0
 62
     0
 10
157.52
 20
86.3618
 30
0.0
 11
157.52
 21
100.361
 31
0.0
  0
LINE
  8
0
 62
     0
 10
176.57
 20
100.361
 30
0.0
 11
190.569
 21
100.361
 31
0.0
  0
LINE
  8
0
 62
     0
 10
190.569
 20
100.361
 30
0.0
 11
190.569
 21
86.3618
 31
0.0
  0
LINE
  8
0
 62
     0
 10
190.569
 20
86.3618
 30
0.0
 11
176.57
 21
86.3618
 31
0.0
  0
LINE
  8
0
 62
     0
 10
176.57
 20
86.3618
 30
0.0
 11
176.57
 21
100.361
 31
0.0
  0
LINE
  8
0
 62
     0
 10
195.62
 20
100.361
 30
0.0
 11
209.619
 21
100.361
 31
0.0
  0
LINE
  8
0
 62
     0
 10
209.619
 20
100.361
 30
0.0
 11
209.619
 21
86.3618
 31
0.0
  0
LINE
  8
0
 62
     0
 10
209.619
 20
86.3618
 30
0.0
 11
195.62
 21
86.3618
 31
0.0
  0
LINE
  8
0
 62
     0
 10
195.62
 20
86.3618
 30
0.0
 11
195.62
 21
100.361
 31
0.0
  0
LINE
  8
0
 62
     0
 10
214.67
 20
100.361
 30
0.0
 11
228.669
 21
100.361
 31
0.0
  0
LINE
  8
0
 62
     0
 10
228.669
 20
100.361
 30
0.0
 11
228.669
 21
86.3618
 31
0.0
  0
LINE
  8
0
 62
     0
 10
228.669
 20
86.3618
 30
0.0
 11
214.67
 21
86.3618
 31
0.0
  0
LINE
  8
0
 62
     0
 10
214.67
 20
86.3618
 30
0.0
 11
214.67
 21
100.361
 31
0.0
  0
LINE
  8
0
 62
     0
 10
233.72
 20
100.361
 30
0.0
 11
247.719
 21
100.361
 31
0.0
  0
LINE
  8
0
 62
     0
 10
247.719
 20
100.361
 30
0.0
 11
247.719
 21
86.3618
 31
0.0
  0
LINE
  8
0
 62
     0
 10
247.719
 20
86.3618
 30
0.0
 11
233.72
 21
86.3618
 31
0.0
  0
LINE
  8
0
 62
     0
 10
233.72
 20
86.3618
 30
0.0
 11
233.72
 21
100.361
 31
0.0
  0
LINE
  8
0
 62
     0
 10
300.395
 20
100.361
 30
0.0
 11
314.394
 21
100.361
 31
0.0
  0
LINE
  8
0
 62
     0
 10
314.394
 20
100.361
 30
0.0
 11
314.394
 21
86.3618
 31
0.0
  0
LINE
  8
0
 62
     0
 10
314.394
 20
86.3618
 30
0.0
 11
300.395
 21
86.3618
 31
0.0
  0
LINE
  8
0
 62
     0
 10
300.395
 20
86.3618
 30
0.0
 11
300.395
 21
100.361
 31
0.0
  0
LINE
  8
0
 62
     0
 10
5.11803
 20
128.937
 30
0.0
 11
19.1189
 21
128.937
 31
0.0
  0
LINE
  8
0
 62
     0
 10
19.1189
 20
128.937
 30
0.0
 11
19.1189
 21
114.937
 31
0.0
  0
LINE
  8
0
 62
     0
 10
19.1189
 20
114.937
 30
0.0
 11
5.11803
 21
114.937
 31
0.0
  0
LINE
  8
0
 62
     0
 10
5.11803
 20
114.937
 30
0.0
 11
5.11803
 21
128.937
 31
0.0
  0
LINE
  8
0
 62
     0
 10
28.9319
 20
128.937
 30
0.0
 11
42.9313
 21
128.937
 31
0.0
  0
LINE
  8
0
 62
     0
 10
42.9313
 20
128.937
 30
0.0
 11
42.9313
 21
114.937
 31
0.0
  0
LINE
  8
0
 62
     0
 10
42.9313
 20
114.937
 30
0.0
 11
28.9319
 21
114.937
 31
0.0
  0
LINE
  8
0
 62
     0
 10
28.9319
 20
114.937
 30
0.0
 11
28.9319
 21
128.937
 31
0.0
  0
LINE
  8
0
 62
     0
 10
47.982
 20
128.937
 30
0.0
 11
61.9813
 21
128.937
 31
0.0
  0
LINE
  8
0
 62
     0
 10
61.9813
 20
128.937
 30
0.0
 11
61.9813
 21
114.937
 31
0.0
  0
LINE
  8
0
 62
     0
 10
61.9813
 20
114.937
 30
0.0
 11
47.982
 21
114.937
 31
0.0
  0
LINE
  8
0
 62
     0
 10
47.982
 20
114.937
 30
0.0
 11
47.982
 21
128.937
 31
0.0
  0
LINE
  8
0
 62
     0
 10
67.032
 20
128.937
 30
0.0
 11
81.0313
 21
128.937
 31
0.0
  0
LINE
  8
0
 62
     0
 10
81.0313
 20
128.937
 30
0.0
 11
81.0313
 21
114.937
 31
0.0
  0
LINE
  8
0
 62
     0
 10
81.0313
 20
114.937
 30
0.0
 11
67.032
 21
114.937
 31
0.0
  0
LINE
  8
0
 62
     0
 10
67.032
 20
114.937
 30
0.0
 11
67.032
 21
128.937
 31
0.0
  0
LINE
  8
0
 62
     0
 10
86.082
 20
128.937
 30
0.0
 11
100.081
 21
128.937
 31
0.0
  0
LINE
  8
0
 62
     0
 10
100.081
 20
128.937
 30
0.0
 11
100.081
 21
114.937
 31
0.0
  0
LINE
  8
0
 62
     0
 10
100.081
 20
114.937
 30
0.0
 11
86.082
 21
114.937
 31
0.0
  0
LINE
  8
0
 62
     0
 10
86.082
 20
114.937
 30
0.0
 11
86.082
 21
128.937
 31
0.0
  0
LINE
  8
0
 62
     0
 10
109.895
 20
128.937
 30
0.0
 11
123.894
 21
128.937
 31
0.0
  0
LINE
  8
0
 62
     0
 10
123.894
 20
128.937
 30
0.0
 11
123.894
 21
114.937
 31
0.0
  0
LINE
  8
0
 62
     0
 10
123.894
 20
114.937
 30
0.0
 11
109.895
 21
114.937
 31
0.0
  0
LINE
  8
0
 62
     0
 10
109.895
 20
114.937
 30
0.0
 11
109.895
 21
128.937
 31
0.0
  0
LINE
  8
0
 62
     0
 10
128.945
 20
128.937
 30
0.0
 11
142.944
 21
128.937
 31
0.0
  0
LINE
  8
0
 62
     0
 10
142.944
 20
128.937
 30
0.0
 11
142.944
 21
114.937
 31
0.0
  0
LINE
  8
0
 62
     0
 10
142.944
 20
114.937
 30
0.0
 11
128.945
 21
114.937
 31
0.0
  0
LINE
  8
0
 62
     0
 10
128.945
 20
114.937
 30
0.0
 11
128.945
 21
128.937
 31
0.0
  0
LINE
  8
0
 62
     0
 10
147.995
 20
128.937
 30
0.0
 11
161.994
 21
128.937
 31
0.0
  0
LINE
  8
0
 62
     0
 10
161.994
 20
128.937
 30
0.0
 11
161.994
 21
114.937
 31
0.0
  0
LINE
  8
0
 62
     0
 10
161.994
 20
114.937
 30
0.0
 11
147.995
 21
114.937
 31
0.0
  0
LINE
  8
0
 62
     0
 10
147.995
 20
114.937
 30
0.0
 11
147.995
 21
128.937
 31
0.0
  0
LINE
  8
0
 62
     0
 10
167.045
 20
128.937
 30
0.0
 11
181.044
 21
128.937
 31
0.0
  0
LINE
  8
0
 62
     0
 10
181.044
 20
128.937
 30
0.0
 11
181.044
 21
114.937
 31
0.0
  0
LINE
  8
0
 62
     0
 10
181.044
 20
114.937
 30
0.0
 11
167.045
 21
114.937
 31
0.0
  0
LINE
  8
0
 62
     0
 10
167.045
 20
114.937
 30
0.0
 11
167.045
 21
128.937
 31
0.0
  0
LINE
  8
0
 62
     0
 10
190.857
 20
128.937
 30
0.0
 11
204.856
 21
128.937
 31
0.0
  0
LINE
  8
0
 62
     0
 10
204.856
 20
128.937
 30
0.0
 11
204.856
 21
114.937
 31
0.0
  0
LINE
  8
0
 62
     0
 10
204.856
 20
114.937
 30
0.0
 11
190.857
 21
114.937
 31
0.0
  0
LINE
  8
0
 62
     0
 10
190.857
 20
114.937
 30
0.0
 11
190.857
 21
128.937
 31
0.0
  0
LINE
  8
0
 62
     0
 10
209.907
 20
128.937
 30
0.0
 11
223.906
 21
128.937
 31
0.0
  0
LINE
  8
0
 62
     0
 10
223.906
 20
128.937
 30
0.0
 11
223.906
 21
114.937
 31
0.0
  0
LINE
  8
0
 62
     0
 10
223.906
 20
114.937
 30
0.0
 11
209.907
 21
114.937
 31
0.0
  0
LINE
  8
0
 62
     0
 10
209.907
 20
114.937
 30
0.0
 11
209.907
 21
128.937
 31
0.0
  0
LINE
  8
0
 62
     0
 10
228.957
 20
128.937
 30
0.0
 11
242.956
 21
128.937
 31
0.0
  0
LINE
  8
0
 62
     0
 10
242.956
 20
128.937
 30
0.0
 11
242.956
 21
114.937
 31
0.0
  0
LINE
  8
0
 62
     0
 10
242.956
 20
114.937
 30
0.0
 11
228.957
 21
114.937
 31
0.0
  0
LINE
  8
0
 62
     0
 10
228.957
 20
114.937
 30
0.0
 11
228.957
 21
128.937
 31
0.0
  0
LINE
  8
0
 62
     0
 10
248.007
 20
128.937
 30
0.0
 11
262.006
 21
128.937
 31
0.0
  0
LINE
  8
0
 62
     0
 10
262.006
 20
128.937
 30
0.0
 11
262.006
 21
114.937
 31
0.0
  0
LINE
  8
0
 62
     0
 10
262.006
 20
114.937
 30
0.0
 11
248.007
 21
114.937
 31
0.0
  0
LINE
  8
0
 62
     0
 10
248.007
 20
114.937
 30
0.0
 11
248.007
 21
128.937
 31
0.0
  0
LINE
  8
0
 62
     0
 10
271.82
 20
128.937
 30
0.0
 11
285.819
 21
128.937
 31
0.0
  0
LINE
  8
0
 62
     0
 10
285.819
 20
128.937
 30
0.0
 11
285.819
 21
114.937
 31
0.0
  0
LINE
  8
0
 62
     0
 10
285.819
 20
114.937
 30
0.0
 11
271.82
 21
114.937
 31
0.0
  0
LINE
  8
0
 62
     0
 10
271.82
 20
114.937
 30
0.0
 11
271.82
 21
128.937
 31
0.0
  0
ENDSEC
  0
EOF
