  0
SECTION
  2
HEADER
  9
$ACADVER
  1
AC1009
  9
$INSBASE
 10
0.0
 20
0.0
 30
0.0
  9
$EXTMIN
 10
0.0
 20
0.0
 30
0.0
  9
$EXTMAX
 10
0.0
 20
0.0
 30
0.0
  0
ENDSEC
  0
SECTION
  2
TABLES
  0
TABLE
  2
VPORT
 70
1
  0
VPORT
  2
*ACTIVE
 70
0
 10
0.0
 20
0.0
 11
1.0
 21
1.0
 12
-5.0
 22
1.0
 13
0.0
 23
0.0
 14
0.1
 24
0.1
 15
0.1
 25
0.1
 16
0.0
 26
0.0
 36
1.0
 17
0.0
 27
0.0
 37
0.0
 40
10.0
 41
1.0
 42
50.0
 43
0.0
 44
0.0
 50
0.0
 51
0.0
 71
0
 72
100
 73
1
 74
1
 75
0
 76
0
 77
0
 78
0
  0
ENDTAB
  0
TABLE
  2
LTYPE
 70
8
  0
LTYPE
  2
CONTINUOUS
 70
0
  3
Solid line
 72
65
 73
0
 40
0.0
  0
LTYPE
  2
DOT
 70
0
  3
. . . . . . .
 72
65
 73
2
 40
0.25
 49
0.0
 49
-0.25
  0
LTYPE
  2
DASHED
 70
0
  3
__ __ __ __ __
 72
65
 73
2
 40
0.8
 49
0.5
 49
-0.3
  0
LTYPE
  2
DASHDOT
 70
0
  3
__ . __ . __ .
 72
65
 73
4
 40
1.0
 49
0.5
 49
-0.25
 49
0.0
 49
-0.25
  0
LTYPE
  2
DIVIDE
 70
0
  3
____ . . ____ . . 
 72
65
 73
6
 40
1.25
 49
0.5
 49
-0.25
 49
0.0
 49
-0.25
 49
0.0
 49
-0.25
  0
LTYPE
  2
BORDER
 70
0
  3
__ __ . __ __ . 
 72
65
 73
6
 40
1.75
 49
0.5
 49
-0.25
 49
0.5
 49
-0.25
 49
0.0
 49
-0.25
  0
LTYPE
  2
HIDDEN
 70
0
  3
__ __ __ __ __
 72
65
 73
2
 40
0.4
 49
0.25
 49
-0.25
  0
LTYPE
  2
CENTER
 70
0
  3
____ _ ____ _ __
 72
65
 73
4
 40
2.0
 49
1.25
 49
-0.25
 49
0.25
 49
-0.25
  0
ENDTAB
  0
TABLE
  2
LAYER
 70
1
  0
LAYER
  2
PYDXF
 70
64
 62
7
  6
continuous
  0
ENDTAB
  0
TABLE
  2
STYLE
 70
1
  0
STYLE
  2
STANDARD
 70
0
 40
0
 41
1.0
 50
0.0
 71
0
 42
1
 3
ARIAL.TTF
 4

  0
ENDTAB
  0
TABLE
  2
VIEW
 70
1
  0
VIEW
  2
BF_TOPVIEW
 70
0
 40
120.0
 10
0.0
 20
0.0
 41
200.0
 11
0.0
 21
0.0
 31
1.0
 12
0.0
 22
0.0
 32
0.0
 42
50.0
 43
0.0
 44
0.0
 50
0.0
 71
0
  0
ENDTAB
  0
ENDSEC
  0
SECTION
  2
BLOCKS
  0
ENDSEC
  0
SECTION
  2
ENTITIES
  0
LINE
  8
0
 10
0.045713070780038834
 20
-0.0036265531089156866
 30
0.0
 11
0.09133105725049973
 21
-0.0036265531089156866
 31
0.0
  0
LINE
  8
0
 10
0.09133105725049973
 20
-0.0036265531089156866
 30
0.0
 11
0.09133105725049973
 21
0.00037344699376262724
 31
0.0
  0
LINE
  8
0
 10
0.09133105725049973
 20
0.00037344699376262724
 30
0.0
 11
0.13694904744625092
 21
0.00037344699376262724
 31
0.0
  0
LINE
  8
0
 10
0.13694904744625092
 20
0.00037344699376262724
 30
0.0
 11
0.13694904744625092
 21
-0.0036265531089156866
 31
0.0
  0
LINE
  8
0
 10
0.13694904744625092
 20
-0.0036265531089156866
 30
0.0
 11
0.1825670301914215
 21
-0.0036265531089156866
 31
0.0
  0
LINE
  8
0
 10
0.1825670301914215
 20
-0.0036265531089156866
 30
0.0
 11
0.1825670301914215
 21
0.00037344699376262724
 31
0.0
  0
LINE
  8
0
 10
0.1825670301914215
 20
0.00037344699376262724
 30
0.0
 11
0.2281850129365921
 21
0.00037344699376262724
 31
0.0
  0
LINE
  8
0
 10
0.2281850129365921
 20
0.00037344699376262724
 30
0.0
 11
0.2281850129365921
 21
-0.0036265531089156866
 31
0.0
  0
LINE
  8
0
 10
0.2281850129365921
 20
-0.0036265531089156866
 30
0.0
 11
0.2738029956817627
 21
-0.0036265531089156866
 31
0.0
  0
LINE
  8
0
 10
0.2738029956817627
 20
-0.0036265531089156866
 30
0.0
 11
0.2738029956817627
 21
0.00037344699376262724
 31
0.0
  0
LINE
  8
0
 10
0.2738029956817627
 20
0.00037344699376262724
 30
0.0
 11
0.3194209933280945
 21
0.00037344699376262724
 31
0.0
  0
LINE
  8
0
 10
0.3194209933280945
 20
0.00037344699376262724
 30
0.0
 11
0.3194209933280945
 21
0.00037344699376262724
 31
0.0
  0
LINE
  8
0
 10
0.3194209933280945
 20
0.00037344699376262724
 30
0.0
 11
0.3194209933280945
 21
0.033770084381103516
 31
0.0
  0
LINE
  8
0
 10
0.3194209933280945
 20
0.033770084381103516
 30
0.0
 11
0.32342100143432617
 21
0.033770084381103516
 31
0.0
  0
LINE
  8
0
 10
0.32342100143432617
 20
0.033770084381103516
 30
0.0
 11
0.32342100143432617
 21
0.10056336224079132
 31
0.0
  0
LINE
  8
0
 10
0.32342100143432617
 20
0.10056336224079132
 30
0.0
 11
0.3194209933280945
 21
0.10056336224079132
 31
0.0
  0
LINE
  8
0
 10
0.3194209933280945
 20
0.10056336224079132
 30
0.0
 11
0.3194139897823334
 21
0.10541100054979324
 31
0.0
  0
LINE
  8
0
 10
0.3194139897823334
 20
0.10541100054979324
 30
0.0
 11
0.3143939971923828
 21
0.10541100054979324
 31
0.0
  0
LINE
  8
0
 10
0.3143939971923828
 20
0.10541100054979324
 30
0.0
 11
0.30039501190185547
 21
0.10541100054979324
 31
0.0
  0
LINE
  8
0
 10
0.30039501190185547
 20
0.10541100054979324
 30
0.0
 11
0.29086899757385254
 21
0.11493699997663498
 31
0.0
  0
LINE
  8
0
 10
0.29086899757385254
 20
0.11493699997663498
 30
0.0
 11
0.29086899757385254
 21
0.1289370059967041
 31
0.0
  0
LINE
  8
0
 10
0.29086899757385254
 20
0.1289370059967041
 30
0.0
 11
0.29086899757385254
 21
0.13395948708057404
 31
0.0
  0
LINE
  8
0
 10
0.29086899757385254
 20
0.13395948708057404
 30
0.0
 11
0.2738029956817627
 21
0.13395999372005463
 31
0.0
  0
LINE
  8
0
 10
0.2738029956817627
 20
0.13395999372005463
 30
0.0
 11
0.2738029956817627
 21
0.13795998692512512
 31
0.0
  0
LINE
  8
0
 10
0.2738029956817627
 20
0.13795998692512512
 30
0.0
 11
0.2281850278377533
 21
0.13795998692512512
 31
0.0
  0
LINE
  8
0
 10
0.2281850278377533
 20
0.13795998692512512
 30
0.0
 11
0.2281850278377533
 21
0.13395999372005463
 31
0.0
  0
LINE
  8
0
 10
0.2281850278377533
 20
0.13395999372005463
 30
0.0
 11
0.1825670301914215
 21
0.13395999372005463
 31
0.0
  0
LINE
  8
0
 10
0.1825670301914215
 20
0.13395999372005463
 30
0.0
 11
0.1825670301914215
 21
0.13795998692512512
 31
0.0
  0
LINE
  8
0
 10
0.1825670301914215
 20
0.13795998692512512
 30
0.0
 11
0.13694904744625092
 21
0.13795998692512512
 31
0.0
  0
LINE
  8
0
 10
0.13694904744625092
 20
0.13795998692512512
 30
0.0
 11
0.13694904744625092
 21
0.13395999372005463
 31
0.0
  0
LINE
  8
0
 10
0.13694904744625092
 20
0.13395999372005463
 30
0.0
 11
0.09133106470108032
 21
0.13395999372005463
 31
0.0
  0
LINE
  8
0
 10
0.09133106470108032
 20
0.13395999372005463
 30
0.0
 11
0.09133106470108032
 21
0.13795998692512512
 31
0.0
  0
LINE
  8
0
 10
0.09133106470108032
 20
0.13795998692512512
 30
0.0
 11
0.045713070780038834
 21
0.13795998692512512
 31
0.0
  0
LINE
  8
0
 10
0.045713070780038834
 20
0.13795998692512512
 30
0.0
 11
0.045713070780038834
 21
0.13395999372005463
 31
0.0
  0
LINE
  8
0
 10
0.045713070780038834
 20
0.13395999372005463
 30
0.0
 11
9.508500079391524e-05
 21
0.13395999372005463
 31
0.0
  0
LINE
  8
0
 10
9.508500079391524e-05
 20
0.13395999372005463
 30
0.0
 11
9.508500079391524e-05
 21
0.10056335479021072
 31
0.0
  0
LINE
  8
0
 10
9.508500079391524e-05
 20
0.10056335479021072
 30
0.0
 11
-0.0039049151819199324
 21
0.10056335479021072
 31
0.0
  0
LINE
  8
0
 10
-0.0039049151819199324
 20
0.10056335479021072
 30
0.0
 11
-0.0039049151819199324
 21
0.03377008065581322
 31
0.0
  0
LINE
  8
0
 10
-0.0039049151819199324
 20
0.03377008065581322
 30
0.0
 11
9.508500079391524e-05
 21
0.03377008065581322
 31
0.0
  0
LINE
  8
0
 10
9.508500079391524e-05
 20
0.03377008065581322
 30
0.0
 11
9.508500079391524e-05
 21
0.00037344699376262724
 31
0.0
  0
LINE
  8
0
 10
9.508500079391524e-05
 20
0.00037344699376262724
 30
0.0
 11
0.045713070780038834
 21
0.00037344699376262724
 31
0.0
  0
LINE
  8
0
 10
0.045713070780038834
 20
-0.0036265531089156866
 30
0.0
 11
0.045713070780038834
 21
0.00037344699376262724
 31
0.0
  0
LINE
  8
0
 10
0.23819400370121002
 20
0.08131100237369537
 30
0.0
 11
0.22419500350952148
 21
0.08131100237369537
 31
0.0
  0
LINE
  8
0
 10
0.22419500350952148
 20
0.08131100237369537
 30
0.0
 11
0.22419500350952148
 21
0.08131100237369537
 31
0.0
  0
LINE
  8
0
 10
0.22419500350952148
 20
0.08131100237369537
 30
0.0
 11
0.22419500350952148
 21
0.06731180101633072
 31
0.0
  0
LINE
  8
0
 10
0.22419500350952148
 20
0.06731180101633072
 30
0.0
 11
0.23819400370121002
 21
0.06731180101633072
 31
0.0
  0
LINE
  8
0
 10
0.23819400370121002
 20
0.08131100237369537
 30
0.0
 11
0.23819400370121002
 21
0.06731180101633072
 31
0.0
  0
LINE
  8
0
 10
0.1524689942598343
 20
0.10036099702119827
 30
0.0
 11
0.13846999406814575
 21
0.10036099702119827
 31
0.0
  0
LINE
  8
0
 10
0.13846999406814575
 20
0.10036099702119827
 30
0.0
 11
0.13846999406814575
 21
0.10036099702119827
 31
0.0
  0
LINE
  8
0
 10
0.13846999406814575
 20
0.10036099702119827
 30
0.0
 11
0.13846999406814575
 21
0.08636180311441422
 31
0.0
  0
LINE
  8
0
 10
0.13846999406814575
 20
0.08636180311441422
 30
0.0
 11
0.1524689942598343
 21
0.08636180311441422
 31
0.0
  0
LINE
  8
0
 10
0.1524689942598343
 20
0.10036099702119827
 30
0.0
 11
0.1524689942598343
 21
0.08636180311441422
 31
0.0
  0
LINE
  8
0
 10
0.12389399856328964
 20
0.11493699997663498
 30
0.0
 11
0.12389399856328964
 21
0.1289370059967041
 31
0.0
  0
LINE
  8
0
 10
0.12389399856328964
 20
0.1289370059967041
 30
0.0
 11
0.12389399856328964
 21
0.1289370059967041
 31
0.0
  0
LINE
  8
0
 10
0.12389399856328964
 20
0.1289370059967041
 30
0.0
 11
0.1098949983716011
 21
0.1289370059967041
 31
0.0
  0
LINE
  8
0
 10
0.1098949983716011
 20
0.1289370059967041
 30
0.0
 11
0.1098949983716011
 21
0.11493699997663498
 31
0.0
  0
LINE
  8
0
 10
0.12389399856328964
 20
0.11493699997663498
 30
0.0
 11
0.1098949983716011
 21
0.11493699997663498
 31
0.0
  0
LINE
  8
0
 10
0.15751999616622925
 20
0.10036099702119827
 30
0.0
 11
0.17151899635791779
 21
0.10036099702119827
 31
0.0
  0
LINE
  8
0
 10
0.17151899635791779
 20
0.10036099702119827
 30
0.0
 11
0.17151899635791779
 21
0.10036099702119827
 31
0.0
  0
LINE
  8
0
 10
0.17151899635791779
 20
0.10036099702119827
 30
0.0
 11
0.17151899635791779
 21
0.08636180311441422
 31
0.0
  0
LINE
  8
0
 10
0.17151899635791779
 20
0.08636180311441422
 30
0.0
 11
0.15751999616622925
 21
0.08636180311441422
 31
0.0
  0
LINE
  8
0
 10
0.15751999616622925
 20
0.10036099702119827
 30
0.0
 11
0.15751999616622925
 21
0.08636180311441422
 31
0.0
  0
LINE
  8
0
 10
0.07150629907846451
 20
0.06226100027561188
 30
0.0
 11
0.07150629907846451
 21
0.04826179891824722
 31
0.0
  0
LINE
  8
0
 10
0.07150629907846451
 20
0.04826179891824722
 30
0.0
 11
0.07150629907846451
 21
0.04826179891824722
 31
0.0
  0
LINE
  8
0
 10
0.07150629907846451
 20
0.04826179891824722
 30
0.0
 11
0.057507000863552094
 21
0.04826179891824722
 31
0.0
  0
LINE
  8
0
 10
0.057507000863552094
 20
0.04826179891824722
 30
0.0
 11
0.057507000863552094
 21
0.06226100027561188
 31
0.0
  0
LINE
  8
0
 10
0.07150629907846451
 20
0.06226100027561188
 30
0.0
 11
0.057507000863552094
 21
0.06226100027561188
 31
0.0
  0
LINE
  8
0
 10
0.22895699739456177
 20
0.1289370059967041
 30
0.0
 11
0.2429559975862503
 21
0.1289370059967041
 31
0.0
  0
LINE
  8
0
 10
0.2429559975862503
 20
0.1289370059967041
 30
0.0
 11
0.2429559975862503
 21
0.1289370059967041
 31
0.0
  0
LINE
  8
0
 10
0.2429559975862503
 20
0.1289370059967041
 30
0.0
 11
0.2429559975862503
 21
0.11493699997663498
 31
0.0
  0
LINE
  8
0
 10
0.2429559975862503
 20
0.11493699997663498
 30
0.0
 11
0.22895699739456177
 21
0.11493699997663498
 31
0.0
  0
LINE
  8
0
 10
0.22895699739456177
 20
0.1289370059967041
 30
0.0
 11
0.22895699739456177
 21
0.11493699997663498
 31
0.0
  0
LINE
  8
0
 10
0.25962498784065247
 20
0.04321099817752838
 30
0.0
 11
0.25962498784065247
 21
0.029211699962615967
 31
0.0
  0
LINE
  8
0
 10
0.25962498784065247
 20
0.029211699962615967
 30
0.0
 11
0.25962498784065247
 21
0.029211699962615967
 31
0.0
  0
LINE
  8
0
 10
0.25962498784065247
 20
0.029211699962615967
 30
0.0
 11
0.24562600255012512
 21
0.029211699962615967
 31
0.0
  0
LINE
  8
0
 10
0.24562600255012512
 20
0.029211699962615967
 30
0.0
 11
0.24562600255012512
 21
0.04321099817752838
 31
0.0
  0
LINE
  8
0
 10
0.25962498784065247
 20
0.04321099817752838
 30
0.0
 11
0.24562600255012512
 21
0.04321099817752838
 31
0.0
  0
LINE
  8
0
 10
0.19085699319839478
 20
0.06226100027561188
 30
0.0
 11
0.2048559933900833
 21
0.06226100027561188
 31
0.0
  0
LINE
  8
0
 10
0.2048559933900833
 20
0.06226100027561188
 30
0.0
 11
0.2048559933900833
 21
0.06226100027561188
 31
0.0
  0
LINE
  8
0
 10
0.2048559933900833
 20
0.06226100027561188
 30
0.0
 11
0.2048559933900833
 21
0.04826179891824722
 31
0.0
  0
LINE
  8
0
 10
0.2048559933900833
 20
0.04826179891824722
 30
0.0
 11
0.19085699319839478
 21
0.04826179891824722
 31
0.0
  0
LINE
  8
0
 10
0.19085699319839478
 20
0.06226100027561188
 30
0.0
 11
0.19085699319839478
 21
0.04826179891824722
 31
0.0
  0
LINE
  8
0
 10
0.04293129965662956
 20
0.1289370059967041
 30
0.0
 11
0.04293129965662956
 21
0.11493699997663498
 31
0.0
  0
LINE
  8
0
 10
0.04293129965662956
 20
0.11493699997663498
 30
0.0
 11
0.04293129965662956
 21
0.11493699997663498
 31
0.0
  0
LINE
  8
0
 10
0.04293129965662956
 20
0.11493699997663498
 30
0.0
 11
0.02893190085887909
 21
0.11493699997663498
 31
0.0
  0
LINE
  8
0
 10
0.02893190085887909
 20
0.11493699997663498
 30
0.0
 11
0.02893190085887909
 21
0.1289370059967041
 31
0.0
  0
LINE
  8
0
 10
0.04293129965662956
 20
0.1289370059967041
 30
0.0
 11
0.02893190085887909
 21
0.1289370059967041
 31
0.0
  0
LINE
  8
0
 10
0.2572439908981323
 20
0.06731180101633072
 30
0.0
 11
0.2572439908981323
 21
0.08131100237369537
 31
0.0
  0
LINE
  8
0
 10
0.2572439908981323
 20
0.08131100237369537
 30
0.0
 11
0.2572439908981323
 21
0.08131100237369537
 31
0.0
  0
LINE
  8
0
 10
0.2572439908981323
 20
0.08131100237369537
 30
0.0
 11
0.24324500560760498
 21
0.08131100237369537
 31
0.0
  0
LINE
  8
0
 10
0.24324500560760498
 20
0.08131100237369537
 30
0.0
 11
0.24324500560760498
 21
0.06731180101633072
 31
0.0
  0
LINE
  8
0
 10
0.2572439908981323
 20
0.06731180101633072
 30
0.0
 11
0.24324500560760498
 21
0.06731180101633072
 31
0.0
  0
LINE
  8
0
 10
0.262006014585495
 20
0.1289370059967041
 30
0.0
 11
0.262006014585495
 21
0.11493699997663498
 31
0.0
  0
LINE
  8
0
 10
0.262006014585495
 20
0.11493699997663498
 30
0.0
 11
0.262006014585495
 21
0.11493699997663498
 31
0.0
  0
LINE
  8
0
 10
0.262006014585495
 20
0.11493699997663498
 30
0.0
 11
0.24800699949264526
 21
0.11493699997663498
 31
0.0
  0
LINE
  8
0
 10
0.24800699949264526
 20
0.11493699997663498
 30
0.0
 11
0.24800699949264526
 21
0.1289370059967041
 31
0.0
  0
LINE
  8
0
 10
0.262006014585495
 20
0.1289370059967041
 30
0.0
 11
0.24800699949264526
 21
0.1289370059967041
 31
0.0
  0
LINE
  8
0
 10
0.1479949951171875
 20
0.08131100237369537
 30
0.0
 11
0.16199399530887604
 21
0.08131100237369537
 31
0.0
  0
LINE
  8
0
 10
0.16199399530887604
 20
0.08131100237369537
 30
0.0
 11
0.16199399530887604
 21
0.08131100237369537
 31
0.0
  0
LINE
  8
0
 10
0.16199399530887604
 20
0.08131100237369537
 30
0.0
 11
0.16199399530887604
 21
0.06731180101633072
 31
0.0
  0
LINE
  8
0
 10
0.16199399530887604
 20
0.06731180101633072
 30
0.0
 11
0.1479949951171875
 21
0.06731180101633072
 31
0.0
  0
LINE
  8
0
 10
0.1479949951171875
 20
0.08131100237369537
 30
0.0
 11
0.1479949951171875
 21
0.06731180101633072
 31
0.0
  0
LINE
  8
0
 10
0.16199399530887604
 20
0.1289370059967041
 30
0.0
 11
0.16199399530887604
 21
0.11493699997663498
 31
0.0
  0
LINE
  8
0
 10
0.16199399530887604
 20
0.11493699997663498
 30
0.0
 11
0.16199399530887604
 21
0.11493699997663498
 31
0.0
  0
LINE
  8
0
 10
0.16199399530887604
 20
0.11493699997663498
 30
0.0
 11
0.1479949951171875
 21
0.11493699997663498
 31
0.0
  0
LINE
  8
0
 10
0.1479949951171875
 20
0.11493699997663498
 30
0.0
 11
0.1479949951171875
 21
0.1289370059967041
 31
0.0
  0
LINE
  8
0
 10
0.16199399530887604
 20
0.1289370059967041
 30
0.0
 11
0.1479949951171875
 21
0.1289370059967041
 31
0.0
  0
LINE
  8
0
 10
0.07626879960298538
 20
0.10036099702119827
 30
0.0
 11
0.07626879960298538
 21
0.08636180311441422
 31
0.0
  0
LINE
  8
0
 10
0.07626879960298538
 20
0.08636180311441422
 30
0.0
 11
0.07626879960298538
 21
0.08636180311441422
 31
0.0
  0
LINE
  8
0
 10
0.07626879960298538
 20
0.08636180311441422
 30
0.0
 11
0.06226950138807297
 21
0.08636180311441422
 31
0.0
  0
LINE
  8
0
 10
0.06226950138807297
 20
0.08636180311441422
 30
0.0
 11
0.06226950138807297
 21
0.10036099702119827
 31
0.0
  0
LINE
  8
0
 10
0.07626879960298538
 20
0.10036099702119827
 30
0.0
 11
0.06226950138807297
 21
0.10036099702119827
 31
0.0
  0
LINE
  8
0
 10
0.2048559933900833
 20
0.1289370059967041
 30
0.0
 11
0.2048559933900833
 21
0.11493699997663498
 31
0.0
  0
LINE
  8
0
 10
0.2048559933900833
 20
0.11493699997663498
 30
0.0
 11
0.2048559933900833
 21
0.11493699997663498
 31
0.0
  0
LINE
  8
0
 10
0.2048559933900833
 20
0.11493699997663498
 30
0.0
 11
0.19085699319839478
 21
0.11493699997663498
 31
0.0
  0
LINE
  8
0
 10
0.19085699319839478
 20
0.11493699997663498
 30
0.0
 11
0.19085699319839478
 21
0.1289370059967041
 31
0.0
  0
LINE
  8
0
 10
0.2048559933900833
 20
0.1289370059967041
 30
0.0
 11
0.19085699319839478
 21
0.1289370059967041
 31
0.0
  0
LINE
  8
0
 10
0.047693800181150436
 20
0.06731180101633072
 30
0.0
 11
0.047693800181150436
 21
0.08131100237369537
 31
0.0
  0
LINE
  8
0
 10
0.047693800181150436
 20
0.08131100237369537
 30
0.0
 11
0.047693800181150436
 21
0.08131100237369537
 31
0.0
  0
LINE
  8
0
 10
0.047693800181150436
 20
0.08131100237369537
 30
0.0
 11
0.03369440138339996
 21
0.08131100237369537
 31
0.0
  0
LINE
  8
0
 10
0.03369440138339996
 20
0.08131100237369537
 30
0.0
 11
0.03369440138339996
 21
0.06731180101633072
 31
0.0
  0
LINE
  8
0
 10
0.047693800181150436
 20
0.06731180101633072
 30
0.0
 11
0.03369440138339996
 21
0.06731180101633072
 31
0.0
  0
LINE
  8
0
 10
0.10008099675178528
 20
0.1289370059967041
 30
0.0
 11
0.10008099675178528
 21
0.11493699997663498
 31
0.0
  0
LINE
  8
0
 10
0.10008099675178528
 20
0.11493699997663498
 30
0.0
 11
0.10008099675178528
 21
0.11493699997663498
 31
0.0
  0
LINE
  8
0
 10
0.10008099675178528
 20
0.11493699997663498
 30
0.0
 11
0.08608199656009674
 21
0.11493699997663498
 31
0.0
  0
LINE
  8
0
 10
0.08608199656009674
 20
0.11493699997663498
 30
0.0
 11
0.08608199656009674
 21
0.1289370059967041
 31
0.0
  0
LINE
  8
0
 10
0.10008099675178528
 20
0.1289370059967041
 30
0.0
 11
0.08608199656009674
 21
0.1289370059967041
 31
0.0
  0
LINE
  8
0
 10
0.20009399950504303
 20
0.08131100237369537
 30
0.0
 11
0.1860949993133545
 21
0.08131100237369537
 31
0.0
  0
LINE
  8
0
 10
0.1860949993133545
 20
0.08131100237369537
 30
0.0
 11
0.1860949993133545
 21
0.08131100237369537
 31
0.0
  0
LINE
  8
0
 10
0.1860949993133545
 20
0.08131100237369537
 30
0.0
 11
0.1860949993133545
 21
0.06731180101633072
 31
0.0
  0
LINE
  8
0
 10
0.1860949993133545
 20
0.06731180101633072
 30
0.0
 11
0.20009399950504303
 21
0.06731180101633072
 31
0.0
  0
LINE
  8
0
 10
0.20009399950504303
 20
0.08131100237369537
 30
0.0
 11
0.20009399950504303
 21
0.06731180101633072
 31
0.0
  0
LINE
  8
0
 10
0.06198130175471306
 20
0.1289370059967041
 30
0.0
 11
0.06198130175471306
 21
0.11493699997663498
 31
0.0
  0
LINE
  8
0
 10
0.06198130175471306
 20
0.11493699997663498
 30
0.0
 11
0.06198130175471306
 21
0.11493699997663498
 31
0.0
  0
LINE
  8
0
 10
0.06198130175471306
 20
0.11493699997663498
 30
0.0
 11
0.047981999814510345
 21
0.11493699997663498
 31
0.0
  0
LINE
  8
0
 10
0.047981999814510345
 20
0.11493699997663498
 30
0.0
 11
0.047981999814510345
 21
0.1289370059967041
 31
0.0
  0
LINE
  8
0
 10
0.06198130175471306
 20
0.1289370059967041
 30
0.0
 11
0.047981999814510345
 21
0.1289370059967041
 31
0.0
  0
LINE
  8
0
 10
0.0191188994795084
 20
0.10036099702119827
 30
0.0
 11
0.005118030123412609
 21
0.10036099702119827
 31
0.0
  0
LINE
  8
0
 10
0.005118030123412609
 20
0.10036099702119827
 30
0.0
 11
0.005118030123412609
 21
0.10036099702119827
 31
0.0
  0
LINE
  8
0
 10
0.005118030123412609
 20
0.10036099702119827
 30
0.0
 11
0.005118030123412609
 21
0.08636180311441422
 31
0.0
  0
LINE
  8
0
 10
0.005118030123412609
 20
0.08636180311441422
 30
0.0
 11
0.0191188994795084
 21
0.08636180311441422
 31
0.0
  0
LINE
  8
0
 10
0.0191188994795084
 20
0.10036099702119827
 30
0.0
 11
0.0191188994795084
 21
0.08636180311441422
 31
0.0
  0
LINE
  8
0
 10
0.08103130012750626
 20
0.029211699962615967
 30
0.0
 11
0.08103130012750626
 21
0.04321099817752838
 31
0.0
  0
LINE
  8
0
 10
0.08103130012750626
 20
0.04321099817752838
 30
0.0
 11
0.08103130012750626
 21
0.04321099817752838
 31
0.0
  0
LINE
  8
0
 10
0.08103130012750626
 20
0.04321099817752838
 30
0.0
 11
0.06703200191259384
 21
0.04321099817752838
 31
0.0
  0
LINE
  8
0
 10
0.06703200191259384
 20
0.04321099817752838
 30
0.0
 11
0.06703200191259384
 21
0.029211699962615967
 31
0.0
  0
LINE
  8
0
 10
0.08103130012750626
 20
0.029211699962615967
 30
0.0
 11
0.06703200191259384
 21
0.029211699962615967
 31
0.0
  0
LINE
  8
0
 10
0.16228200495243073
 20
0.04321099817752838
 30
0.0
 11
0.17628100514411926
 21
0.04321099817752838
 31
0.0
  0
LINE
  8
0
 10
0.17628100514411926
 20
0.04321099817752838
 30
0.0
 11
0.17628100514411926
 21
0.04321099817752838
 31
0.0
  0
LINE
  8
0
 10
0.17628100514411926
 20
0.04321099817752838
 30
0.0
 11
0.17628100514411926
 21
0.029211699962615967
 31
0.0
  0
LINE
  8
0
 10
0.17628100514411926
 20
0.029211699962615967
 30
0.0
 11
0.16228200495243073
 21
0.029211699962615967
 31
0.0
  0
LINE
  8
0
 10
0.16228200495243073
 20
0.04321099817752838
 30
0.0
 11
0.16228200495243073
 21
0.029211699962615967
 31
0.0
  0
LINE
  8
0
 10
0.2239059954881668
 20
0.06226100027561188
 30
0.0
 11
0.2239059954881668
 21
0.04826179891824722
 31
0.0
  0
LINE
  8
0
 10
0.2239059954881668
 20
0.04826179891824722
 30
0.0
 11
0.2239059954881668
 21
0.04826179891824722
 31
0.0
  0
LINE
  8
0
 10
0.2239059954881668
 20
0.04826179891824722
 30
0.0
 11
0.20990699529647827
 21
0.04826179891824722
 31
0.0
  0
LINE
  8
0
 10
0.20990699529647827
 20
0.04826179891824722
 30
0.0
 11
0.20990699529647827
 21
0.06226100027561188
 31
0.0
  0
LINE
  8
0
 10
0.2239059954881668
 20
0.06226100027561188
 30
0.0
 11
0.20990699529647827
 21
0.06226100027561188
 31
0.0
  0
LINE
  8
0
 10
0.14323200285434723
 20
0.04321099817752838
 30
0.0
 11
0.15723100304603577
 21
0.04321099817752838
 31
0.0
  0
LINE
  8
0
 10
0.15723100304603577
 20
0.04321099817752838
 30
0.0
 11
0.15723100304603577
 21
0.04321099817752838
 31
0.0
  0
LINE
  8
0
 10
0.15723100304603577
 20
0.04321099817752838
 30
0.0
 11
0.15723100304603577
 21
0.029211699962615967
 31
0.0
  0
LINE
  8
0
 10
0.15723100304603577
 20
0.029211699962615967
 30
0.0
 11
0.14323200285434723
 21
0.029211699962615967
 31
0.0
  0
LINE
  8
0
 10
0.14323200285434723
 20
0.04321099817752838
 30
0.0
 11
0.14323200285434723
 21
0.029211699962615967
 31
0.0
  0
LINE
  8
0
 10
0.2429559975862503
 20
0.06226100027561188
 30
0.0
 11
0.22895699739456177
 21
0.06226100027561188
 31
0.0
  0
LINE
  8
0
 10
0.22895699739456177
 20
0.06226100027561188
 30
0.0
 11
0.22895699739456177
 21
0.06226100027561188
 31
0.0
  0
LINE
  8
0
 10
0.22895699739456177
 20
0.06226100027561188
 30
0.0
 11
0.22895699739456177
 21
0.04826179891824722
 31
0.0
  0
LINE
  8
0
 10
0.22895699739456177
 20
0.04826179891824722
 30
0.0
 11
0.2429559975862503
 21
0.04826179891824722
 31
0.0
  0
LINE
  8
0
 10
0.2429559975862503
 20
0.06226100027561188
 30
0.0
 11
0.2429559975862503
 21
0.04826179891824722
 31
0.0
  0
LINE
  8
0
 10
0.057218801230192184
 20
0.10036099702119827
 30
0.0
 11
0.04321949928998947
 21
0.10036099702119827
 31
0.0
  0
LINE
  8
0
 10
0.04321949928998947
 20
0.10036099702119827
 30
0.0
 11
0.04321949928998947
 21
0.10036099702119827
 31
0.0
  0
LINE
  8
0
 10
0.04321949928998947
 20
0.10036099702119827
 30
0.0
 11
0.04321949928998947
 21
0.08636180311441422
 31
0.0
  0
LINE
  8
0
 10
0.04321949928998947
 20
0.08636180311441422
 30
0.0
 11
0.057218801230192184
 21
0.08636180311441422
 31
0.0
  0
LINE
  8
0
 10
0.057218801230192184
 20
0.10036099702119827
 30
0.0
 11
0.057218801230192184
 21
0.08636180311441422
 31
0.0
  0
LINE
  8
0
 10
0.05245630070567131
 20
0.06226100027561188
 30
0.0
 11
0.0384569987654686
 21
0.06226100027561188
 31
0.0
  0
LINE
  8
0
 10
0.0384569987654686
 20
0.06226100027561188
 30
0.0
 11
0.0384569987654686
 21
0.06226100027561188
 31
0.0
  0
LINE
  8
0
 10
0.0384569987654686
 20
0.06226100027561188
 30
0.0
 11
0.0384569987654686
 21
0.04826179891824722
 31
0.0
  0
LINE
  8
0
 10
0.0384569987654686
 20
0.04826179891824722
 30
0.0
 11
0.05245630070567131
 21
0.04826179891824722
 31
0.0
  0
LINE
  8
0
 10
0.05245630070567131
 20
0.06226100027561188
 30
0.0
 11
0.05245630070567131
 21
0.04826179891824722
 31
0.0
  0
LINE
  8
0
 10
0.22866900265216827
 20
0.08636180311441422
 30
0.0
 11
0.22866900265216827
 21
0.10036099702119827
 31
0.0
  0
LINE
  8
0
 10
0.22866900265216827
 20
0.10036099702119827
 30
0.0
 11
0.22866900265216827
 21
0.10036099702119827
 31
0.0
  0
LINE
  8
0
 10
0.22866900265216827
 20
0.10036099702119827
 30
0.0
 11
0.21467000246047974
 21
0.10036099702119827
 31
0.0
  0
LINE
  8
0
 10
0.21467000246047974
 20
0.10036099702119827
 30
0.0
 11
0.21467000246047974
 21
0.08636180311441422
 31
0.0
  0
LINE
  8
0
 10
0.22866900265216827
 20
0.08636180311441422
 30
0.0
 11
0.21467000246047974
 21
0.08636180311441422
 31
0.0
  0
LINE
  8
0
 10
0.1143689975142479
 20
0.10036099702119827
 30
0.0
 11
0.10036800056695938
 21
0.10036099702119827
 31
0.0
  0
LINE
  8
0
 10
0.10036800056695938
 20
0.10036099702119827
 30
0.0
 11
0.10036800056695938
 21
0.10036099702119827
 31
0.0
  0
LINE
  8
0
 10
0.10036800056695938
 20
0.10036099702119827
 30
0.0
 11
0.10036800056695938
 21
0.08636180311441422
 31
0.0
  0
LINE
  8
0
 10
0.10036800056695938
 20
0.08636180311441422
 30
0.0
 11
0.1143689975142479
 21
0.08636180311441422
 31
0.0
  0
LINE
  8
0
 10
0.1143689975142479
 20
0.10036099702119827
 30
0.0
 11
0.1143689975142479
 21
0.08636180311441422
 31
0.0
  0
LINE
  8
0
 10
0.08579380065202713
 20
0.06731180101633072
 30
0.0
 11
0.08579380065202713
 21
0.08131100237369537
 31
0.0
  0
LINE
  8
0
 10
0.08579380065202713
 20
0.08131100237369537
 30
0.0
 11
0.08579380065202713
 21
0.08131100237369537
 31
0.0
  0
LINE
  8
0
 10
0.08579380065202713
 20
0.08131100237369537
 30
0.0
 11
0.07179450243711472
 21
0.08131100237369537
 31
0.0
  0
LINE
  8
0
 10
0.07179450243711472
 20
0.08131100237369537
 30
0.0
 11
0.07179450243711472
 21
0.06731180101633072
 31
0.0
  0
LINE
  8
0
 10
0.08579380065202713
 20
0.06731180101633072
 30
0.0
 11
0.07179450243711472
 21
0.06731180101633072
 31
0.0
  0
LINE
  8
0
 10
0.13818100094795227
 20
0.029211699962615967
 30
0.0
 11
0.13818100094795227
 21
0.04321099817752838
 31
0.0
  0
LINE
  8
0
 10
0.13818100094795227
 20
0.04321099817752838
 30
0.0
 11
0.13818100094795227
 21
0.04321099817752838
 31
0.0
  0
LINE
  8
0
 10
0.13818100094795227
 20
0.04321099817752838
 30
0.0
 11
0.12418100237846375
 21
0.04321099817752838
 31
0.0
  0
LINE
  8
0
 10
0.12418100237846375
 20
0.04321099817752838
 30
0.0
 11
0.12418100237846375
 21
0.029211699962615967
 31
0.0
  0
LINE
  8
0
 10
0.13818100094795227
 20
0.029211699962615967
 30
0.0
 11
0.12418100237846375
 21
0.029211699962615967
 31
0.0
  0
LINE
  8
0
 10
0.2239059954881668
 20
0.11493699997663498
 30
0.0
 11
0.2239059954881668
 21
0.1289370059967041
 31
0.0
  0
LINE
  8
0
 10
0.2239059954881668
 20
0.1289370059967041
 30
0.0
 11
0.2239059954881668
 21
0.1289370059967041
 31
0.0
  0
LINE
  8
0
 10
0.2239059954881668
 20
0.1289370059967041
 30
0.0
 11
0.20990699529647827
 21
0.1289370059967041
 31
0.0
  0
LINE
  8
0
 10
0.20990699529647827
 20
0.1289370059967041
 30
0.0
 11
0.20990699529647827
 21
0.11493699997663498
 31
0.0
  0
LINE
  8
0
 10
0.2239059954881668
 20
0.11493699997663498
 30
0.0
 11
0.20990699529647827
 21
0.11493699997663498
 31
0.0
  0
LINE
  8
0
 10
0.14770600199699402
 20
0.06226100027561188
 30
0.0
 11
0.13370700180530548
 21
0.06226100027561188
 31
0.0
  0
LINE
  8
0
 10
0.13370700180530548
 20
0.06226100027561188
 30
0.0
 11
0.13370700180530548
 21
0.06226100027561188
 31
0.0
  0
LINE
  8
0
 10
0.13370700180530548
 20
0.06226100027561188
 30
0.0
 11
0.13370700180530548
 21
0.04826179891824722
 31
0.0
  0
LINE
  8
0
 10
0.13370700180530548
 20
0.04826179891824722
 30
0.0
 11
0.14770600199699402
 21
0.04826179891824722
 31
0.0
  0
LINE
  8
0
 10
0.14770600199699402
 20
0.06226100027561188
 30
0.0
 11
0.14770600199699402
 21
0.04826179891824722
 31
0.0
  0
LINE
  8
0
 10
0.19056899845600128
 20
0.10036099702119827
 30
0.0
 11
0.17656999826431274
 21
0.10036099702119827
 31
0.0
  0
LINE
  8
0
 10
0.17656999826431274
 20
0.10036099702119827
 30
0.0
 11
0.17656999826431274
 21
0.10036099702119827
 31
0.0
  0
LINE
  8
0
 10
0.17656999826431274
 20
0.10036099702119827
 30
0.0
 11
0.17656999826431274
 21
0.08636180311441422
 31
0.0
  0
LINE
  8
0
 10
0.17656999826431274
 20
0.08636180311441422
 30
0.0
 11
0.19056899845600128
 21
0.08636180311441422
 31
0.0
  0
LINE
  8
0
 10
0.19056899845600128
 20
0.10036099702119827
 30
0.0
 11
0.19056899845600128
 21
0.08636180311441422
 31
0.0
  0
LINE
  8
0
 10
0.30039501190185547
 20
0.08131100237369537
 30
0.0
 11
0.3143939971923828
 21
0.08131100237369537
 31
0.0
  0
LINE
  8
0
 10
0.3143939971923828
 20
0.08131100237369537
 30
0.0
 11
0.3143939971923828
 21
0.08131100237369537
 31
0.0
  0
LINE
  8
0
 10
0.3143939971923828
 20
0.08131100237369537
 30
0.0
 11
0.3143939971923828
 21
0.06731180101633072
 31
0.0
  0
LINE
  8
0
 10
0.3143939971923828
 20
0.06731180101633072
 30
0.0
 11
0.30039501190185547
 21
0.06731180101633072
 31
0.0
  0
LINE
  8
0
 10
0.30039501190185547
 20
0.08131100237369537
 30
0.0
 11
0.30039501190185547
 21
0.06731180101633072
 31
0.0
  0
LINE
  8
0
 10
0.090556301176548
 20
0.06226100027561188
 30
0.0
 11
0.07655700296163559
 21
0.06226100027561188
 31
0.0
  0
LINE
  8
0
 10
0.07655700296163559
 20
0.06226100027561188
 30
0.0
 11
0.07655700296163559
 21
0.06226100027561188
 31
0.0
  0
LINE
  8
0
 10
0.07655700296163559
 20
0.06226100027561188
 30
0.0
 11
0.07655700296163559
 21
0.04826179891824722
 31
0.0
  0
LINE
  8
0
 10
0.07655700296163559
 20
0.04826179891824722
 30
0.0
 11
0.090556301176548
 21
0.04826179891824722
 31
0.0
  0
LINE
  8
0
 10
0.090556301176548
 20
0.06226100027561188
 30
0.0
 11
0.090556301176548
 21
0.04826179891824722
 31
0.0
  0
LINE
  8
0
 10
0.03816879913210869
 20
0.10036099702119827
 30
0.0
 11
0.03816879913210869
 21
0.08636180311441422
 31
0.0
  0
LINE
  8
0
 10
0.03816879913210869
 20
0.08636180311441422
 30
0.0
 11
0.03816879913210869
 21
0.08636180311441422
 31
0.0
  0
LINE
  8
0
 10
0.03816879913210869
 20
0.08636180311441422
 30
0.0
 11
0.024169400334358215
 21
0.08636180311441422
 31
0.0
  0
LINE
  8
0
 10
0.024169400334358215
 20
0.08636180311441422
 30
0.0
 11
0.024169400334358215
 21
0.10036099702119827
 31
0.0
  0
LINE
  8
0
 10
0.03816879913210869
 20
0.10036099702119827
 30
0.0
 11
0.024169400334358215
 21
0.10036099702119827
 31
0.0
  0
LINE
  8
0
 10
0.12865599989891052
 20
0.06226100027561188
 30
0.0
 11
0.12865599989891052
 21
0.04826179891824722
 31
0.0
  0
LINE
  8
0
 10
0.12865599989891052
 20
0.04826179891824722
 30
0.0
 11
0.12865599989891052
 21
0.04826179891824722
 31
0.0
  0
LINE
  8
0
 10
0.12865599989891052
 20
0.04826179891824722
 30
0.0
 11
0.11465699970722198
 21
0.04826179891824722
 31
0.0
  0
LINE
  8
0
 10
0.11465699970722198
 20
0.04826179891824722
 30
0.0
 11
0.11465699970722198
 21
0.06226100027561188
 31
0.0
  0
LINE
  8
0
 10
0.12865599989891052
 20
0.06226100027561188
 30
0.0
 11
0.11465699970722198
 21
0.06226100027561188
 31
0.0
  0
LINE
  8
0
 10
0.047981999814510345
 20
0.04321099817752838
 30
0.0
 11
0.06198130175471306
 21
0.04321099817752838
 31
0.0
  0
LINE
  8
0
 10
0.06198130175471306
 20
0.04321099817752838
 30
0.0
 11
0.06198130175471306
 21
0.04321099817752838
 31
0.0
  0
LINE
  8
0
 10
0.06198130175471306
 20
0.04321099817752838
 30
0.0
 11
0.06198130175471306
 21
0.029211699962615967
 31
0.0
  0
LINE
  8
0
 10
0.06198130175471306
 20
0.029211699962615967
 30
0.0
 11
0.047981999814510345
 21
0.029211699962615967
 31
0.0
  0
LINE
  8
0
 10
0.047981999814510345
 20
0.04321099817752838
 30
0.0
 11
0.047981999814510345
 21
0.029211699962615967
 31
0.0
  0
LINE
  8
0
 10
0.257532000541687
 20
0.019398700445890427
 30
0.0
 11
0.27153098583221436
 21
0.019398700445890427
 31
0.0
  0
LINE
  8
0
 10
0.27153098583221436
 20
0.019398700445890427
 30
0.0
 11
0.27153098583221436
 21
0.019398700445890427
 31
0.0
  0
LINE
  8
0
 10
0.27153098583221436
 20
0.019398700445890427
 30
0.0
 11
0.27153098583221436
 21
0.005399160087108612
 31
0.0
  0
LINE
  8
0
 10
0.27153098583221436
 20
0.005399160087108612
 30
0.0
 11
0.257532000541687
 21
0.005399160087108612
 31
0.0
  0
LINE
  8
0
 10
0.257532000541687
 20
0.019398700445890427
 30
0.0
 11
0.257532000541687
 21
0.005399160087108612
 31
0.0
  0
LINE
  8
0
 10
0.22866900265216827
 20
0.024161100387573242
 30
0.0
 11
0.22866900265216827
 21
0.01016169972717762
 31
0.0
  0
LINE
  8
0
 10
0.22866900265216827
 20
0.01016169972717762
 30
0.0
 11
0.22866900265216827
 21
0.01016169972717762
 31
0.0
  0
LINE
  8
0
 10
0.22866900265216827
 20
0.01016169972717762
 30
0.0
 11
0.21467000246047974
 21
0.01016169972717762
 31
0.0
  0
LINE
  8
0
 10
0.21467000246047974
 20
0.01016169972717762
 30
0.0
 11
0.21467000246047974
 21
0.024161100387573242
 31
0.0
  0
LINE
  8
0
 10
0.22866900265216827
 20
0.024161100387573242
 30
0.0
 11
0.21467000246047974
 21
0.024161100387573242
 31
0.0
  0
LINE
  8
0
 10
0.167044997215271
 20
0.1289370059967041
 30
0.0
 11
0.18104399740695953
 21
0.1289370059967041
 31
0.0
  0
LINE
  8
0
 10
0.18104399740695953
 20
0.1289370059967041
 30
0.0
 11
0.18104399740695953
 21
0.1289370059967041
 31
0.0
  0
LINE
  8
0
 10
0.18104399740695953
 20
0.1289370059967041
 30
0.0
 11
0.18104399740695953
 21
0.11493699997663498
 31
0.0
  0
LINE
  8
0
 10
0.18104399740695953
 20
0.11493699997663498
 30
0.0
 11
0.167044997215271
 21
0.11493699997663498
 31
0.0
  0
LINE
  8
0
 10
0.167044997215271
 20
0.1289370059967041
 30
0.0
 11
0.167044997215271
 21
0.11493699997663498
 31
0.0
  0
LINE
  8
0
 10
0.20961900055408478
 20
0.024161100387573242
 30
0.0
 11
0.20961900055408478
 21
0.01016169972717762
 31
0.0
  0
LINE
  8
0
 10
0.20961900055408478
 20
0.01016169972717762
 30
0.0
 11
0.20961900055408478
 21
0.01016169972717762
 31
0.0
  0
LINE
  8
0
 10
0.20961900055408478
 20
0.01016169972717762
 30
0.0
 11
0.19562000036239624
 21
0.01016169972717762
 31
0.0
  0
LINE
  8
0
 10
0.19562000036239624
 20
0.01016169972717762
 30
0.0
 11
0.19562000036239624
 21
0.024161100387573242
 31
0.0
  0
LINE
  8
0
 10
0.20961900055408478
 20
0.024161100387573242
 30
0.0
 11
0.19562000036239624
 21
0.024161100387573242
 31
0.0
  0
LINE
  8
0
 10
0.2810559868812561
 20
0.08131100237369537
 30
0.0
 11
0.26705700159072876
 21
0.08131100237369537
 31
0.0
  0
LINE
  8
0
 10
0.26705700159072876
 20
0.08131100237369537
 30
0.0
 11
0.26705700159072876
 21
0.08131100237369537
 31
0.0
  0
LINE
  8
0
 10
0.26705700159072876
 20
0.08131100237369537
 30
0.0
 11
0.26705700159072876
 21
0.06731180101633072
 31
0.0
  0
LINE
  8
0
 10
0.26705700159072876
 20
0.06731180101633072
 30
0.0
 11
0.2810559868812561
 21
0.06731180101633072
 31
0.0
  0
LINE
  8
0
 10
0.2810559868812561
 20
0.08131100237369537
 30
0.0
 11
0.2810559868812561
 21
0.06731180101633072
 31
0.0
  0
LINE
  8
0
 10
0.30963099002838135
 20
0.005399160087108612
 30
0.0
 11
0.30963099002838135
 21
0.019398700445890427
 31
0.0
  0
LINE
  8
0
 10
0.30963099002838135
 20
0.019398700445890427
 30
0.0
 11
0.30963099002838135
 21
0.019398700445890427
 31
0.0
  0
LINE
  8
0
 10
0.30963099002838135
 20
0.019398700445890427
 30
0.0
 11
0.295632004737854
 21
0.019398700445890427
 31
0.0
  0
LINE
  8
0
 10
0.295632004737854
 20
0.019398700445890427
 30
0.0
 11
0.295632004737854
 21
0.005399160087108612
 31
0.0
  0
LINE
  8
0
 10
0.30963099002838135
 20
0.005399160087108612
 30
0.0
 11
0.295632004737854
 21
0.005399160087108612
 31
0.0
  0
LINE
  8
0
 10
0.21438099443912506
 20
0.04321099817752838
 30
0.0
 11
0.21438099443912506
 21
0.029211699962615967
 31
0.0
  0
LINE
  8
0
 10
0.21438099443912506
 20
0.029211699962615967
 30
0.0
 11
0.21438099443912506
 21
0.029211699962615967
 31
0.0
  0
LINE
  8
0
 10
0.21438099443912506
 20
0.029211699962615967
 30
0.0
 11
0.20038199424743652
 21
0.029211699962615967
 31
0.0
  0
LINE
  8
0
 10
0.20038199424743652
 20
0.029211699962615967
 30
0.0
 11
0.20038199424743652
 21
0.04321099817752838
 31
0.0
  0
LINE
  8
0
 10
0.21438099443912506
 20
0.04321099817752838
 30
0.0
 11
0.20038199424743652
 21
0.04321099817752838
 31
0.0
  0
LINE
  8
0
 10
0.04531250149011612
 20
0.024161100387573242
 30
0.0
 11
0.031313199549913406
 21
0.024161100387573242
 31
0.0
  0
LINE
  8
0
 10
0.031313199549913406
 20
0.024161100387573242
 30
0.0
 11
0.031313199549913406
 21
0.024161100387573242
 31
0.0
  0
LINE
  8
0
 10
0.031313199549913406
 20
0.024161100387573242
 30
0.0
 11
0.031313199549913406
 21
0.01016169972717762
 31
0.0
  0
LINE
  8
0
 10
0.031313199549913406
 20
0.01016169972717762
 30
0.0
 11
0.04531250149011612
 21
0.01016169972717762
 31
0.0
  0
LINE
  8
0
 10
0.04531250149011612
 20
0.024161100387573242
 30
0.0
 11
0.04531250149011612
 21
0.01016169972717762
 31
0.0
  0
LINE
  8
0
 10
0.14294399321079254
 20
0.06731180101633072
 30
0.0
 11
0.14294399321079254
 21
0.08131100237369537
 31
0.0
  0
LINE
  8
0
 10
0.14294399321079254
 20
0.08131100237369537
 30
0.0
 11
0.14294399321079254
 21
0.08131100237369537
 31
0.0
  0
LINE
  8
0
 10
0.14294399321079254
 20
0.08131100237369537
 30
0.0
 11
0.128944993019104
 21
0.08131100237369537
 31
0.0
  0
LINE
  8
0
 10
0.128944993019104
 20
0.08131100237369537
 30
0.0
 11
0.128944993019104
 21
0.06731180101633072
 31
0.0
  0
LINE
  8
0
 10
0.14294399321079254
 20
0.06731180101633072
 30
0.0
 11
0.128944993019104
 21
0.06731180101633072
 31
0.0
  0
LINE
  8
0
 10
0.3143939971923828
 20
0.08636180311441422
 30
0.0
 11
0.3143939971923828
 21
0.10036099702119827
 31
0.0
  0
LINE
  8
0
 10
0.3143939971923828
 20
0.10036099702119827
 30
0.0
 11
0.3143939971923828
 21
0.10036099702119827
 31
0.0
  0
LINE
  8
0
 10
0.3143939971923828
 20
0.10036099702119827
 30
0.0
 11
0.30039501190185547
 21
0.10036099702119827
 31
0.0
  0
LINE
  8
0
 10
0.30039501190185547
 20
0.10036099702119827
 30
0.0
 11
0.30039501190185547
 21
0.08636180311441422
 31
0.0
  0
LINE
  8
0
 10
0.3143939971923828
 20
0.08636180311441422
 30
0.0
 11
0.30039501190185547
 21
0.08636180311441422
 31
0.0
  0
LINE
  8
0
 10
0.28581899404525757
 20
0.1289370059967041
 30
0.0
 11
0.2718200087547302
 21
0.1289370059967041
 31
0.0
  0
LINE
  8
0
 10
0.2718200087547302
 20
0.1289370059967041
 30
0.0
 11
0.2718200087547302
 21
0.1289370059967041
 31
0.0
  0
LINE
  8
0
 10
0.2718200087547302
 20
0.1289370059967041
 30
0.0
 11
0.2718200087547302
 21
0.11493699997663498
 31
0.0
  0
LINE
  8
0
 10
0.2718200087547302
 20
0.11493699997663498
 30
0.0
 11
0.28581899404525757
 21
0.11493699997663498
 31
0.0
  0
LINE
  8
0
 10
0.28581899404525757
 20
0.1289370059967041
 30
0.0
 11
0.28581899404525757
 21
0.11493699997663498
 31
0.0
  0
LINE
  8
0
 10
0.29058098793029785
 20
0.038448501378297806
 30
0.0
 11
0.29058098793029785
 21
0.024449199438095093
 31
0.0
  0
LINE
  8
0
 10
0.29058098793029785
 20
0.024449199438095093
 30
0.0
 11
0.29058098793029785
 21
0.024449199438095093
 31
0.0
  0
LINE
  8
0
 10
0.29058098793029785
 20
0.024449199438095093
 30
0.0
 11
0.2765820026397705
 21
0.024449199438095093
 31
0.0
  0
LINE
  8
0
 10
0.2765820026397705
 20
0.024449199438095093
 30
0.0
 11
0.2765820026397705
 21
0.038448501378297806
 31
0.0
  0
LINE
  8
0
 10
0.29058098793029785
 20
0.038448501378297806
 30
0.0
 11
0.2765820026397705
 21
0.038448501378297806
 31
0.0
  0
LINE
  8
0
 10
0.023881400004029274
 20
0.06731180101633072
 30
0.0
 11
0.023881400004029274
 21
0.08131100237369537
 31
0.0
  0
LINE
  8
0
 10
0.023881400004029274
 20
0.08131100237369537
 30
0.0
 11
0.023881400004029274
 21
0.08131100237369537
 31
0.0
  0
LINE
  8
0
 10
0.023881400004029274
 20
0.08131100237369537
 30
0.0
 11
0.009881909936666489
 21
0.08131100237369537
 31
0.0
  0
LINE
  8
0
 10
0.009881909936666489
 20
0.08131100237369537
 30
0.0
 11
0.009881909936666489
 21
0.06731180101633072
 31
0.0
  0
LINE
  8
0
 10
0.023881400004029274
 20
0.06731180101633072
 30
0.0
 11
0.009881909936666489
 21
0.06731180101633072
 31
0.0
  0
LINE
  8
0
 10
0.185806006193161
 20
0.06226100027561188
 30
0.0
 11
0.17180700600147247
 21
0.06226100027561188
 31
0.0
  0
LINE
  8
0
 10
0.17180700600147247
 20
0.06226100027561188
 30
0.0
 11
0.17180700600147247
 21
0.06226100027561188
 31
0.0
  0
LINE
  8
0
 10
0.17180700600147247
 20
0.06226100027561188
 30
0.0
 11
0.17180700600147247
 21
0.04826179891824722
 31
0.0
  0
LINE
  8
0
 10
0.17180700600147247
 20
0.04826179891824722
 30
0.0
 11
0.185806006193161
 21
0.04826179891824722
 31
0.0
  0
LINE
  8
0
 10
0.185806006193161
 20
0.06226100027561188
 30
0.0
 11
0.185806006193161
 21
0.04826179891824722
 31
0.0
  0
LINE
  8
0
 10
0.3143939971923828
 20
0.04321099817752838
 30
0.0
 11
0.30039501190185547
 21
0.04321099817752838
 31
0.0
  0
LINE
  8
0
 10
0.30039501190185547
 20
0.04321099817752838
 30
0.0
 11
0.30039501190185547
 21
0.04321099817752838
 31
0.0
  0
LINE
  8
0
 10
0.30039501190185547
 20
0.04321099817752838
 30
0.0
 11
0.30039501190185547
 21
0.029211699962615967
 31
0.0
  0
LINE
  8
0
 10
0.30039501190185547
 20
0.029211699962615967
 30
0.0
 11
0.3143939971923828
 21
0.029211699962615967
 31
0.0
  0
LINE
  8
0
 10
0.3143939971923828
 20
0.04321099817752838
 30
0.0
 11
0.3143939971923828
 21
0.029211699962615967
 31
0.0
  0
LINE
  8
0
 10
0.19533100724220276
 20
0.04321099817752838
 30
0.0
 11
0.19533100724220276
 21
0.029211699962615967
 31
0.0
  0
LINE
  8
0
 10
0.19533100724220276
 20
0.029211699962615967
 30
0.0
 11
0.19533100724220276
 21
0.029211699962615967
 31
0.0
  0
LINE
  8
0
 10
0.19533100724220276
 20
0.029211699962615967
 30
0.0
 11
0.18133200705051422
 21
0.029211699962615967
 31
0.0
  0
LINE
  8
0
 10
0.18133200705051422
 20
0.029211699962615967
 30
0.0
 11
0.18133200705051422
 21
0.04321099817752838
 31
0.0
  0
LINE
  8
0
 10
0.19533100724220276
 20
0.04321099817752838
 30
0.0
 11
0.18133200705051422
 21
0.04321099817752838
 31
0.0
  0
LINE
  8
0
 10
0.08103130012750626
 20
0.11493699997663498
 30
0.0
 11
0.08103130012750626
 21
0.1289370059967041
 31
0.0
  0
LINE
  8
0
 10
0.08103130012750626
 20
0.1289370059967041
 30
0.0
 11
0.08103130012750626
 21
0.1289370059967041
 31
0.0
  0
LINE
  8
0
 10
0.08103130012750626
 20
0.1289370059967041
 30
0.0
 11
0.06703200191259384
 21
0.1289370059967041
 31
0.0
  0
LINE
  8
0
 10
0.06703200191259384
 20
0.1289370059967041
 30
0.0
 11
0.06703200191259384
 21
0.11493699997663498
 31
0.0
  0
LINE
  8
0
 10
0.08103130012750626
 20
0.11493699997663498
 30
0.0
 11
0.06703200191259384
 21
0.11493699997663498
 31
0.0
  0
LINE
  8
0
 10
0.026262599974870682
 20
0.04826179891824722
 30
0.0
 11
0.026262599974870682
 21
0.06226100027561188
 31
0.0
  0
LINE
  8
0
 10
0.026262599974870682
 20
0.06226100027561188
 30
0.0
 11
0.026262599974870682
 21
0.06226100027561188
 31
0.0
  0
LINE
  8
0
 10
0.026262599974870682
 20
0.06226100027561188
 30
0.0
 11
0.012263200245797634
 21
0.06226100027561188
 31
0.0
  0
LINE
  8
0
 10
0.012263200245797634
 20
0.06226100027561188
 30
0.0
 11
0.012263200245797634
 21
0.04826179891824722
 31
0.0
  0
LINE
  8
0
 10
0.026262599974870682
 20
0.04826179891824722
 30
0.0
 11
0.012263200245797634
 21
0.04826179891824722
 31
0.0
  0
LINE
  8
0
 10
0.06674379855394363
 20
0.06731180101633072
 30
0.0
 11
0.06674379855394363
 21
0.08131100237369537
 31
0.0
  0
LINE
  8
0
 10
0.06674379855394363
 20
0.08131100237369537
 30
0.0
 11
0.06674379855394363
 21
0.08131100237369537
 31
0.0
  0
LINE
  8
0
 10
0.06674379855394363
 20
0.08131100237369537
 30
0.0
 11
0.05274450033903122
 21
0.08131100237369537
 31
0.0
  0
LINE
  8
0
 10
0.05274450033903122
 20
0.08131100237369537
 30
0.0
 11
0.05274450033903122
 21
0.06731180101633072
 31
0.0
  0
LINE
  8
0
 10
0.06674379855394363
 20
0.06731180101633072
 30
0.0
 11
0.05274450033903122
 21
0.06731180101633072
 31
0.0
  0
LINE
  8
0
 10
0.021500099450349808
 20
0.01016169972717762
 30
0.0
 11
0.021500099450349808
 21
0.024161100387573242
 31
0.0
  0
LINE
  8
0
 10
0.021500099450349808
 20
0.024161100387573242
 30
0.0
 11
0.021500099450349808
 21
0.024161100387573242
 31
0.0
  0
LINE
  8
0
 10
0.021500099450349808
 20
0.024161100387573242
 30
0.0
 11
0.007500660140067339
 21
0.024161100387573242
 31
0.0
  0
LINE
  8
0
 10
0.007500660140067339
 20
0.024161100387573242
 30
0.0
 11
0.007500660140067339
 21
0.01016169972717762
 31
0.0
  0
LINE
  8
0
 10
0.021500099450349808
 20
0.01016169972717762
 30
0.0
 11
0.007500660140067339
 21
0.01016169972717762
 31
0.0
  0
LINE
  8
0
 10
0.08131950348615646
 20
0.10036099702119827
 30
0.0
 11
0.09531880170106888
 21
0.10036099702119827
 31
0.0
  0
LINE
  8
0
 10
0.09531880170106888
 20
0.10036099702119827
 30
0.0
 11
0.09531880170106888
 21
0.10036099702119827
 31
0.0
  0
LINE
  8
0
 10
0.09531880170106888
 20
0.10036099702119827
 30
0.0
 11
0.09531880170106888
 21
0.08636180311441422
 31
0.0
  0
LINE
  8
0
 10
0.09531880170106888
 20
0.08636180311441422
 30
0.0
 11
0.08131950348615646
 21
0.08636180311441422
 31
0.0
  0
LINE
  8
0
 10
0.08131950348615646
 20
0.10036099702119827
 30
0.0
 11
0.08131950348615646
 21
0.08636180311441422
 31
0.0
  0
LINE
  8
0
 10
0.23372000455856323
 20
0.024161100387573242
 30
0.0
 11
0.24771900475025177
 21
0.024161100387573242
 31
0.0
  0
LINE
  8
0
 10
0.24771900475025177
 20
0.024161100387573242
 30
0.0
 11
0.24771900475025177
 21
0.024161100387573242
 31
0.0
  0
LINE
  8
0
 10
0.24771900475025177
 20
0.024161100387573242
 30
0.0
 11
0.24771900475025177
 21
0.01016169972717762
 31
0.0
  0
LINE
  8
0
 10
0.24771900475025177
 20
0.01016169972717762
 30
0.0
 11
0.23372000455856323
 21
0.01016169972717762
 31
0.0
  0
LINE
  8
0
 10
0.23372000455856323
 20
0.024161100387573242
 30
0.0
 11
0.23372000455856323
 21
0.01016169972717762
 31
0.0
  0
LINE
  8
0
 10
0.10008099675178528
 20
0.029211699962615967
 30
0.0
 11
0.10008099675178528
 21
0.04321099817752838
 31
0.0
  0
LINE
  8
0
 10
0.10008099675178528
 20
0.04321099817752838
 30
0.0
 11
0.10008099675178528
 21
0.04321099817752838
 31
0.0
  0
LINE
  8
0
 10
0.10008099675178528
 20
0.04321099817752838
 30
0.0
 11
0.08608199656009674
 21
0.04321099817752838
 31
0.0
  0
LINE
  8
0
 10
0.08608199656009674
 20
0.04321099817752838
 30
0.0
 11
0.08608199656009674
 21
0.029211699962615967
 31
0.0
  0
LINE
  8
0
 10
0.10008099675178528
 20
0.029211699962615967
 30
0.0
 11
0.08608199656009674
 21
0.029211699962615967
 31
0.0
  0
LINE
  8
0
 10
0.10960599780082703
 20
0.06226100027561188
 30
0.0
 11
0.10960599780082703
 21
0.04826179891824722
 31
0.0
  0
LINE
  8
0
 10
0.10960599780082703
 20
0.04826179891824722
 30
0.0
 11
0.10960599780082703
 21
0.04826179891824722
 31
0.0
  0
LINE
  8
0
 10
0.10960599780082703
 20
0.04826179891824722
 30
0.0
 11
0.09560699760913849
 21
0.04826179891824722
 31
0.0
  0
LINE
  8
0
 10
0.09560699760913849
 20
0.04826179891824722
 30
0.0
 11
0.09560699760913849
 21
0.06226100027561188
 31
0.0
  0
LINE
  8
0
 10
0.10960599780082703
 20
0.06226100027561188
 30
0.0
 11
0.09560699760913849
 21
0.06226100027561188
 31
0.0
  0
LINE
  8
0
 10
0.10484399646520615
 20
0.08131100237369537
 30
0.0
 11
0.10484399646520615
 21
0.06731180101633072
 31
0.0
  0
LINE
  8
0
 10
0.10484399646520615
 20
0.06731180101633072
 30
0.0
 11
0.10484399646520615
 21
0.06731180101633072
 31
0.0
  0
LINE
  8
0
 10
0.10484399646520615
 20
0.06731180101633072
 30
0.0
 11
0.09084449708461761
 21
0.06731180101633072
 31
0.0
  0
LINE
  8
0
 10
0.09084449708461761
 20
0.06731180101633072
 30
0.0
 11
0.09084449708461761
 21
0.08131100237369537
 31
0.0
  0
LINE
  8
0
 10
0.10484399646520615
 20
0.08131100237369537
 30
0.0
 11
0.09084449708461761
 21
0.08131100237369537
 31
0.0
  0
LINE
  8
0
 10
0.11913099884986877
 20
0.04321099817752838
 30
0.0
 11
0.10513199865818024
 21
0.04321099817752838
 31
0.0
  0
LINE
  8
0
 10
0.10513199865818024
 20
0.04321099817752838
 30
0.0
 11
0.10513199865818024
 21
0.04321099817752838
 31
0.0
  0
LINE
  8
0
 10
0.10513199865818024
 20
0.04321099817752838
 30
0.0
 11
0.10513199865818024
 21
0.029211699962615967
 31
0.0
  0
LINE
  8
0
 10
0.10513199865818024
 20
0.029211699962615967
 30
0.0
 11
0.11913099884986877
 21
0.029211699962615967
 31
0.0
  0
LINE
  8
0
 10
0.11913099884986877
 20
0.04321099817752838
 30
0.0
 11
0.11913099884986877
 21
0.029211699962615967
 31
0.0
  0
LINE
  8
0
 10
0.16675600409507751
 20
0.06226100027561188
 30
0.0
 11
0.15275700390338898
 21
0.06226100027561188
 31
0.0
  0
LINE
  8
0
 10
0.15275700390338898
 20
0.06226100027561188
 30
0.0
 11
0.15275700390338898
 21
0.06226100027561188
 31
0.0
  0
LINE
  8
0
 10
0.15275700390338898
 20
0.06226100027561188
 30
0.0
 11
0.15275700390338898
 21
0.04826179891824722
 31
0.0
  0
LINE
  8
0
 10
0.15275700390338898
 20
0.04826179891824722
 30
0.0
 11
0.16675600409507751
 21
0.04826179891824722
 31
0.0
  0
LINE
  8
0
 10
0.16675600409507751
 20
0.06226100027561188
 30
0.0
 11
0.16675600409507751
 21
0.04826179891824722
 31
0.0
  0
LINE
  8
0
 10
0.29058098793029785
 20
0.019398700445890427
 30
0.0
 11
0.2765820026397705
 21
0.019398700445890427
 31
0.0
  0
LINE
  8
0
 10
0.2765820026397705
 20
0.019398700445890427
 30
0.0
 11
0.2765820026397705
 21
0.019398700445890427
 31
0.0
  0
LINE
  8
0
 10
0.2765820026397705
 20
0.019398700445890427
 30
0.0
 11
0.2765820026397705
 21
0.005399160087108612
 31
0.0
  0
LINE
  8
0
 10
0.2765820026397705
 20
0.005399160087108612
 30
0.0
 11
0.29058098793029785
 21
0.005399160087108612
 31
0.0
  0
LINE
  8
0
 10
0.29058098793029785
 20
0.019398700445890427
 30
0.0
 11
0.29058098793029785
 21
0.005399160087108612
 31
0.0
  0
LINE
  8
0
 10
0.0191188994795084
 20
0.1289370059967041
 30
0.0
 11
0.0191188994795084
 21
0.11493699997663498
 31
0.0
  0
LINE
  8
0
 10
0.0191188994795084
 20
0.11493699997663498
 30
0.0
 11
0.0191188994795084
 21
0.11493699997663498
 31
0.0
  0
LINE
  8
0
 10
0.0191188994795084
 20
0.11493699997663498
 30
0.0
 11
0.005118030123412609
 21
0.11493699997663498
 31
0.0
  0
LINE
  8
0
 10
0.005118030123412609
 20
0.11493699997663498
 30
0.0
 11
0.005118030123412609
 21
0.1289370059967041
 31
0.0
  0
LINE
  8
0
 10
0.0191188994795084
 20
0.1289370059967041
 30
0.0
 11
0.005118030123412609
 21
0.1289370059967041
 31
0.0
  0
LINE
  8
0
 10
0.24771900475025177
 20
0.10036099702119827
 30
0.0
 11
0.23372000455856323
 21
0.10036099702119827
 31
0.0
  0
LINE
  8
0
 10
0.23372000455856323
 20
0.10036099702119827
 30
0.0
 11
0.23372000455856323
 21
0.10036099702119827
 31
0.0
  0
LINE
  8
0
 10
0.23372000455856323
 20
0.10036099702119827
 30
0.0
 11
0.23372000455856323
 21
0.08636180311441422
 31
0.0
  0
LINE
  8
0
 10
0.23372000455856323
 20
0.08636180311441422
 30
0.0
 11
0.24771900475025177
 21
0.08636180311441422
 31
0.0
  0
LINE
  8
0
 10
0.24771900475025177
 20
0.10036099702119827
 30
0.0
 11
0.24771900475025177
 21
0.08636180311441422
 31
0.0
  0
LINE
  8
0
 10
0.21914400160312653
 20
0.08131100237369537
 30
0.0
 11
0.21914400160312653
 21
0.06731180101633072
 31
0.0
  0
LINE
  8
0
 10
0.21914400160312653
 20
0.06731180101633072
 30
0.0
 11
0.21914400160312653
 21
0.06731180101633072
 31
0.0
  0
LINE
  8
0
 10
0.21914400160312653
 20
0.06731180101633072
 30
0.0
 11
0.205145001411438
 21
0.06731180101633072
 31
0.0
  0
LINE
  8
0
 10
0.205145001411438
 20
0.06731180101633072
 30
0.0
 11
0.205145001411438
 21
0.08131100237369537
 31
0.0
  0
LINE
  8
0
 10
0.21914400160312653
 20
0.08131100237369537
 30
0.0
 11
0.205145001411438
 21
0.08131100237369537
 31
0.0
  0
LINE
  8
0
 10
0.14294399321079254
 20
0.1289370059967041
 30
0.0
 11
0.14294399321079254
 21
0.11493699997663498
 31
0.0
  0
LINE
  8
0
 10
0.14294399321079254
 20
0.11493699997663498
 30
0.0
 11
0.14294399321079254
 21
0.11493699997663498
 31
0.0
  0
LINE
  8
0
 10
0.14294399321079254
 20
0.11493699997663498
 30
0.0
 11
0.128944993019104
 21
0.11493699997663498
 31
0.0
  0
LINE
  8
0
 10
0.128944993019104
 20
0.11493699997663498
 30
0.0
 11
0.128944993019104
 21
0.1289370059967041
 31
0.0
  0
LINE
  8
0
 10
0.14294399321079254
 20
0.1289370059967041
 30
0.0
 11
0.128944993019104
 21
0.1289370059967041
 31
0.0
  0
LINE
  8
0
 10
0.12389399856328964
 20
0.06731180101633072
 30
0.0
 11
0.12389399856328964
 21
0.08131100237369537
 31
0.0
  0
LINE
  8
0
 10
0.12389399856328964
 20
0.08131100237369537
 30
0.0
 11
0.12389399856328964
 21
0.08131100237369537
 31
0.0
  0
LINE
  8
0
 10
0.12389399856328964
 20
0.08131100237369537
 30
0.0
 11
0.1098949983716011
 21
0.08131100237369537
 31
0.0
  0
LINE
  8
0
 10
0.1098949983716011
 20
0.08131100237369537
 30
0.0
 11
0.1098949983716011
 21
0.06731180101633072
 31
0.0
  0
LINE
  8
0
 10
0.12389399856328964
 20
0.06731180101633072
 30
0.0
 11
0.1098949983716011
 21
0.06731180101633072
 31
0.0
  0
LINE
  8
0
 10
0.013774899765849113
 20
0.029440399259328842
 30
0.0
 11
0.013774899765849113
 21
0.02824150025844574
 31
0.0
  0
LINE
  8
0
 10
0.013774899765849113
 20
0.02824150025844574
 30
0.0
 11
0.01047580037266016
 21
0.02824150025844574
 31
0.0
  0
LINE
  8
0
 10
0.01047580037266016
 20
0.02824150025844574
 30
0.0
 11
0.01047580037266016
 21
0.029440399259328842
 31
0.0
  0
LINE
  8
0
 10
0.01047580037266016
 20
0.029440399259328842
 30
0.0
 11
0.0087505504488945
 21
0.029440399259328842
 31
0.0
  0
LINE
  8
0
 10
0.0087505504488945
 20
0.029440399259328842
 30
0.0
 11
0.0087505504488945
 21
0.03571059927344322
 31
0.0
  0
LINE
  8
0
 10
0.0087505504488945
 20
0.03571059927344322
 30
0.0
 11
0.007925080135464668
 21
0.03571059927344322
 31
0.0
  0
LINE
  8
0
 10
0.007925080135464668
 20
0.03571059927344322
 30
0.0
 11
0.007925080135464668
 21
0.03851059824228287
 31
0.0
  0
LINE
  8
0
 10
0.007925080135464668
 20
0.03851059824228287
 30
0.0
 11
0.0087505504488945
 21
0.03851059824228287
 31
0.0
  0
LINE
  8
0
 10
0.0087505504488945
 20
0.03851059824228287
 30
0.0
 11
0.0087505504488945
 21
0.04174070060253143
 31
0.0
  0
LINE
  8
0
 10
0.0087505504488945
 20
0.04174070060253143
 30
0.0
 11
0.015500199981033802
 21
0.04174070060253143
 31
0.0
  0
LINE
  8
0
 10
0.015500199981033802
 20
0.04174070060253143
 30
0.0
 11
0.015500199981033802
 21
0.03851059824228287
 31
0.0
  0
LINE
  8
0
 10
0.015500199981033802
 20
0.03851059824228287
 30
0.0
 11
0.017025699838995934
 21
0.03851059824228287
 31
0.0
  0
LINE
  8
0
 10
0.017025699838995934
 20
0.03851059824228287
 30
0.0
 11
0.017025699838995934
 21
0.04321099817752838
 31
0.0
  0
LINE
  8
0
 10
0.017025699838995934
 20
0.04321099817752838
 30
0.0
 11
0.031025100499391556
 21
0.04321099817752838
 31
0.0
  0
LINE
  8
0
 10
0.031025100499391556
 20
0.04321099817752838
 30
0.0
 11
0.031025100499391556
 21
0.03851059824228287
 31
0.0
  0
LINE
  8
0
 10
0.031025100499391556
 20
0.03851059824228287
 30
0.0
 11
0.03255059942603111
 21
0.03851059824228287
 31
0.0
  0
LINE
  8
0
 10
0.03255059942603111
 20
0.03851059824228287
 30
0.0
 11
0.03255059942603111
 21
0.04174070060253143
 31
0.0
  0
LINE
  8
0
 10
0.03255059942603111
 20
0.04174070060253143
 30
0.0
 11
0.03930019959807396
 21
0.04174070060253143
 31
0.0
  0
LINE
  8
0
 10
0.03930019959807396
 20
0.04174070060253143
 30
0.0
 11
0.03930019959807396
 21
0.03851059824228287
 31
0.0
  0
LINE
  8
0
 10
0.03930019959807396
 20
0.03851059824228287
 30
0.0
 11
0.04012560099363327
 21
0.03851059824228287
 31
0.0
  0
LINE
  8
0
 10
0.04012560099363327
 20
0.03851059824228287
 30
0.0
 11
0.04012560099363327
 21
0.03571059927344322
 31
0.0
  0
LINE
  8
0
 10
0.04012560099363327
 20
0.03571059927344322
 30
0.0
 11
0.03930019959807396
 21
0.03571059927344322
 31
0.0
  0
LINE
  8
0
 10
0.03930019959807396
 20
0.03571059927344322
 30
0.0
 11
0.03930019959807396
 21
0.029440399259328842
 31
0.0
  0
LINE
  8
0
 10
0.03930019959807396
 20
0.029440399259328842
 30
0.0
 11
0.03757509961724281
 21
0.029440399259328842
 31
0.0
  0
LINE
  8
0
 10
0.03757509961724281
 20
0.029440399259328842
 30
0.0
 11
0.03757509961724281
 21
0.02824150025844574
 31
0.0
  0
LINE
  8
0
 10
0.03757509961724281
 20
0.02824150025844574
 30
0.0
 11
0.034276001155376434
 21
0.02824150025844574
 31
0.0
  0
LINE
  8
0
 10
0.034276001155376434
 20
0.02824150025844574
 30
0.0
 11
0.034276001155376434
 21
0.029440399259328842
 31
0.0
  0
LINE
  8
0
 10
0.034276001155376434
 20
0.029440399259328842
 30
0.0
 11
0.03255059942603111
 21
0.029440399259328842
 31
0.0
  0
LINE
  8
0
 10
0.03255059942603111
 20
0.029440399259328842
 30
0.0
 11
0.03255059942603111
 21
0.03391079977154732
 31
0.0
  0
LINE
  8
0
 10
0.03255059942603111
 20
0.03391079977154732
 30
0.0
 11
0.031025100499391556
 21
0.03391079977154732
 31
0.0
  0
LINE
  8
0
 10
0.031025100499391556
 20
0.03391079977154732
 30
0.0
 11
0.031025100499391556
 21
0.029211699962615967
 31
0.0
  0
LINE
  8
0
 10
0.031025100499391556
 20
0.029211699962615967
 30
0.0
 11
0.017025699838995934
 21
0.029211699962615967
 31
0.0
  0
LINE
  8
0
 10
0.017025699838995934
 20
0.029211699962615967
 30
0.0
 11
0.017025699838995934
 21
0.03391079977154732
 31
0.0
  0
LINE
  8
0
 10
0.017025699838995934
 20
0.03391079977154732
 30
0.0
 11
0.017025699838995934
 21
0.03391079977154732
 31
0.0
  0
LINE
  8
0
 10
0.017025699838995934
 20
0.03391079977154732
 30
0.0
 11
0.015500199981033802
 21
0.03391079977154732
 31
0.0
  0
LINE
  8
0
 10
0.015500199981033802
 20
0.03391079977154732
 30
0.0
 11
0.015500199981033802
 21
0.029440399259328842
 31
0.0
  0
LINE
  8
0
 10
0.013774899765849113
 20
0.029440399259328842
 30
0.0
 11
0.015500199981033802
 21
0.029440399259328842
 31
0.0
  0
LINE
  8
0
 10
0.30039501190185547
 20
0.06226100027561188
 30
0.0
 11
0.3143939971923828
 21
0.06226100027561188
 31
0.0
  0
LINE
  8
0
 10
0.3143939971923828
 20
0.06226100027561188
 30
0.0
 11
0.3143939971923828
 21
0.06226100027561188
 31
0.0
  0
LINE
  8
0
 10
0.3143939971923828
 20
0.06226100027561188
 30
0.0
 11
0.3143939971923828
 21
0.04826179891824722
 31
0.0
  0
LINE
  8
0
 10
0.3143939971923828
 20
0.04826179891824722
 30
0.0
 11
0.30039501190185547
 21
0.04826179891824722
 31
0.0
  0
LINE
  8
0
 10
0.30039501190185547
 20
0.06226100027561188
 30
0.0
 11
0.30039501190185547
 21
0.04826179891824722
 31
0.0
  0
LINE
  8
0
 10
0.20961900055408478
 20
0.10036099702119827
 30
0.0
 11
0.20961900055408478
 21
0.08636180311441422
 31
0.0
  0
LINE
  8
0
 10
0.20961900055408478
 20
0.08636180311441422
 30
0.0
 11
0.20961900055408478
 21
0.08636180311441422
 31
0.0
  0
LINE
  8
0
 10
0.20961900055408478
 20
0.08636180311441422
 30
0.0
 11
0.19562000036239624
 21
0.08636180311441422
 31
0.0
  0
LINE
  8
0
 10
0.19562000036239624
 20
0.08636180311441422
 30
0.0
 11
0.19562000036239624
 21
0.10036099702119827
 31
0.0
  0
LINE
  8
0
 10
0.20961900055408478
 20
0.10036099702119827
 30
0.0
 11
0.19562000036239624
 21
0.10036099702119827
 31
0.0
  0
LINE
  8
0
 10
0.23343099653720856
 20
0.029211699962615967
 30
0.0
 11
0.23343099653720856
 21
0.04321099817752838
 31
0.0
  0
LINE
  8
0
 10
0.23343099653720856
 20
0.04321099817752838
 30
0.0
 11
0.23343099653720856
 21
0.04321099817752838
 31
0.0
  0
LINE
  8
0
 10
0.23343099653720856
 20
0.04321099817752838
 30
0.0
 11
0.21943199634552002
 21
0.04321099817752838
 31
0.0
  0
LINE
  8
0
 10
0.21943199634552002
 20
0.04321099817752838
 30
0.0
 11
0.21943199634552002
 21
0.029211699962615967
 31
0.0
  0
LINE
  8
0
 10
0.23343099653720856
 20
0.029211699962615967
 30
0.0
 11
0.21943199634552002
 21
0.029211699962615967
 31
0.0
  0
LINE
  8
0
 10
0.2516379952430725
 20
0.04849040135741234
 30
0.0
 11
0.2533619999885559
 21
0.04849040135741234
 31
0.0
  0
LINE
  8
0
 10
0.2533619999885559
 20
0.04849040135741234
 30
0.0
 11
0.2533619999885559
 21
0.047291599214076996
 31
0.0
  0
LINE
  8
0
 10
0.2533619999885559
 20
0.047291599214076996
 30
0.0
 11
0.25666099786758423
 21
0.047291599214076996
 31
0.0
  0
LINE
  8
0
 10
0.25666099786758423
 20
0.047291599214076996
 30
0.0
 11
0.25666099786758423
 21
0.04849040135741234
 31
0.0
  0
LINE
  8
0
 10
0.25666099786758423
 20
0.04849040135741234
 30
0.0
 11
0.2583880126476288
 21
0.04849040135741234
 31
0.0
  0
LINE
  8
0
 10
0.2583880126476288
 20
0.04849040135741234
 30
0.0
 11
0.2583880126476288
 21
0.052960798144340515
 31
0.0
  0
LINE
  8
0
 10
0.2583880126476288
 20
0.052960798144340515
 30
0.0
 11
0.25991299748420715
 21
0.052960798144340515
 31
0.0
  0
LINE
  8
0
 10
0.25991299748420715
 20
0.052960798144340515
 30
0.0
 11
0.25991299748420715
 21
0.04826179891824722
 31
0.0
  0
LINE
  8
0
 10
0.25991299748420715
 20
0.04826179891824722
 30
0.0
 11
0.2739129960536957
 21
0.04826179891824722
 31
0.0
  0
LINE
  8
0
 10
0.2739129960536957
 20
0.04826179891824722
 30
0.0
 11
0.2739129960536957
 21
0.052960798144340515
 31
0.0
  0
LINE
  8
0
 10
0.2739129960536957
 20
0.052960798144340515
 30
0.0
 11
0.27543801069259644
 21
0.052960798144340515
 31
0.0
  0
LINE
  8
0
 10
0.27543801069259644
 20
0.052960798144340515
 30
0.0
 11
0.27543801069259644
 21
0.04849040135741234
 31
0.0
  0
LINE
  8
0
 10
0.27543801069259644
 20
0.04849040135741234
 30
0.0
 11
0.27716198563575745
 21
0.04849040135741234
 31
0.0
  0
LINE
  8
0
 10
0.27716198563575745
 20
0.04849040135741234
 30
0.0
 11
0.27716198563575745
 21
0.047291599214076996
 31
0.0
  0
LINE
  8
0
 10
0.27716198563575745
 20
0.047291599214076996
 30
0.0
 11
0.28046301007270813
 21
0.047291599214076996
 31
0.0
  0
LINE
  8
0
 10
0.28046301007270813
 20
0.047291599214076996
 30
0.0
 11
0.28046301007270813
 21
0.04849040135741234
 31
0.0
  0
LINE
  8
0
 10
0.28046301007270813
 20
0.04849040135741234
 30
0.0
 11
0.2821879982948303
 21
0.04849040135741234
 31
0.0
  0
LINE
  8
0
 10
0.2821879982948303
 20
0.04849040135741234
 30
0.0
 11
0.2821879982948303
 21
0.05476060137152672
 31
0.0
  0
LINE
  8
0
 10
0.2821879982948303
 20
0.05476060137152672
 30
0.0
 11
0.2830120027065277
 21
0.05476060137152672
 31
0.0
  0
LINE
  8
0
 10
0.2830120027065277
 20
0.05476060137152672
 30
0.0
 11
0.2830120027065277
 21
0.057560600340366364
 31
0.0
  0
LINE
  8
0
 10
0.2830120027065277
 20
0.057560600340366364
 30
0.0
 11
0.2821879982948303
 21
0.057560600340366364
 31
0.0
  0
LINE
  8
0
 10
0.2821879982948303
 20
0.057560600340366364
 30
0.0
 11
0.2821879982948303
 21
0.06079069897532463
 31
0.0
  0
LINE
  8
0
 10
0.2821879982948303
 20
0.06079069897532463
 30
0.0
 11
0.27543801069259644
 21
0.06079069897532463
 31
0.0
  0
LINE
  8
0
 10
0.27543801069259644
 20
0.06079069897532463
 30
0.0
 11
0.27543801069259644
 21
0.057560600340366364
 31
0.0
  0
LINE
  8
0
 10
0.27543801069259644
 20
0.057560600340366364
 30
0.0
 11
0.2739129960536957
 21
0.057560600340366364
 31
0.0
  0
LINE
  8
0
 10
0.2739129960536957
 20
0.057560600340366364
 30
0.0
 11
0.2739129960536957
 21
0.06226100027561188
 31
0.0
  0
LINE
  8
0
 10
0.2739129960536957
 20
0.06226100027561188
 30
0.0
 11
0.25991299748420715
 21
0.06226100027561188
 31
0.0
  0
LINE
  8
0
 10
0.25991299748420715
 20
0.06226100027561188
 30
0.0
 11
0.25991299748420715
 21
0.057560600340366364
 31
0.0
  0
LINE
  8
0
 10
0.25991299748420715
 20
0.057560600340366364
 30
0.0
 11
0.2583880126476288
 21
0.057560600340366364
 31
0.0
  0
LINE
  8
0
 10
0.2583880126476288
 20
0.057560600340366364
 30
0.0
 11
0.2583880126476288
 21
0.06079069897532463
 31
0.0
  0
LINE
  8
0
 10
0.2583880126476288
 20
0.06079069897532463
 30
0.0
 11
0.2516379952430725
 21
0.06079069897532463
 31
0.0
  0
LINE
  8
0
 10
0.2516379952430725
 20
0.06079069897532463
 30
0.0
 11
0.2516379952430725
 21
0.057560600340366364
 31
0.0
  0
LINE
  8
0
 10
0.2516379952430725
 20
0.057560600340366364
 30
0.0
 11
0.25081300735473633
 21
0.057560600340366364
 31
0.0
  0
LINE
  8
0
 10
0.25081300735473633
 20
0.057560600340366364
 30
0.0
 11
0.25081300735473633
 21
0.057560600340366364
 31
0.0
  0
LINE
  8
0
 10
0.25081300735473633
 20
0.057560600340366364
 30
0.0
 11
0.25081300735473633
 21
0.05476060137152672
 31
0.0
  0
LINE
  8
0
 10
0.25081300735473633
 20
0.05476060137152672
 30
0.0
 11
0.2516379952430725
 21
0.05476060137152672
 31
0.0
  0
LINE
  8
0
 10
0.2516379952430725
 20
0.04849040135741234
 30
0.0
 11
0.2516379952430725
 21
0.05476060137152672
 31
0.0
  0
LINE
  8
0
 10
0.06912499666213989
 20
0.024161100387573242
 30
0.0
 11
0.06912499666213989
 21
0.01016169972717762
 31
0.0
  0
LINE
  8
0
 10
0.06912499666213989
 20
0.01016169972717762
 30
0.0
 11
0.06912499666213989
 21
0.01016169972717762
 31
0.0
  0
LINE
  8
0
 10
0.06912499666213989
 20
0.01016169972717762
 30
0.0
 11
0.055125799030065536
 21
0.01016169972717762
 31
0.0
  0
LINE
  8
0
 10
0.055125799030065536
 20
0.01016169972717762
 30
0.0
 11
0.055125799030065536
 21
0.024161100387573242
 31
0.0
  0
LINE
  8
0
 10
0.06912499666213989
 20
0.024161100387573242
 30
0.0
 11
0.055125799030065536
 21
0.024161100387573242
 31
0.0
  0
LINE
  8
0
 10
0.18693800270557404
 20
0.01946070045232773
 30
0.0
 11
0.18693800270557404
 21
0.022690799087285995
 31
0.0
  0
LINE
  8
0
 10
0.18693800270557404
 20
0.022690799087285995
 30
0.0
 11
0.18018800020217896
 21
0.022690799087285995
 31
0.0
  0
LINE
  8
0
 10
0.18018800020217896
 20
0.022690799087285995
 30
0.0
 11
0.18018800020217896
 21
0.01946070045232773
 31
0.0
  0
LINE
  8
0
 10
0.18018800020217896
 20
0.01946070045232773
 30
0.0
 11
0.1405629962682724
 21
0.01946070045232773
 31
0.0
  0
LINE
  8
0
 10
0.1405629962682724
 20
0.01946070045232773
 30
0.0
 11
0.1405629962682724
 21
0.024161100387573242
 31
0.0
  0
LINE
  8
0
 10
0.1405629962682724
 20
0.024161100387573242
 30
0.0
 11
0.12656299769878387
 21
0.024161100387573242
 31
0.0
  0
LINE
  8
0
 10
0.12656299769878387
 20
0.024161100387573242
 30
0.0
 11
0.12656299769878387
 21
0.01946070045232773
 31
0.0
  0
LINE
  8
0
 10
0.12656299769878387
 20
0.01946070045232773
 30
0.0
 11
0.08693789690732956
 21
0.01946070045232773
 31
0.0
  0
LINE
  8
0
 10
0.08693789690732956
 20
0.01946070045232773
 30
0.0
 11
0.08693789690732956
 21
0.022690799087285995
 31
0.0
  0
LINE
  8
0
 10
0.08693789690732956
 20
0.022690799087285995
 30
0.0
 11
0.08018819987773895
 21
0.022690799087285995
 31
0.0
  0
LINE
  8
0
 10
0.08018819987773895
 20
0.022690799087285995
 30
0.0
 11
0.08018819987773895
 21
0.01946070045232773
 31
0.0
  0
LINE
  8
0
 10
0.08018819987773895
 20
0.01946070045232773
 30
0.0
 11
0.07936269789934158
 21
0.01946070045232773
 31
0.0
  0
LINE
  8
0
 10
0.07936269789934158
 20
0.01946070045232773
 30
0.0
 11
0.07936269789934158
 21
0.016660500317811966
 31
0.0
  0
LINE
  8
0
 10
0.07936269789934158
 20
0.016660500317811966
 30
0.0
 11
0.08018819987773895
 21
0.016660500317811966
 31
0.0
  0
LINE
  8
0
 10
0.08018819987773895
 20
0.016660500317811966
 30
0.0
 11
0.08018819987773895
 21
0.01039039995521307
 31
0.0
  0
LINE
  8
0
 10
0.08018819987773895
 20
0.01039039995521307
 30
0.0
 11
0.08191180229187012
 21
0.01039039995521307
 31
0.0
  0
LINE
  8
0
 10
0.08191180229187012
 20
0.01039039995521307
 30
0.0
 11
0.08191180229187012
 21
0.00919151958078146
 31
0.0
  0
LINE
  8
0
 10
0.08191180229187012
 20
0.00919151958078146
 30
0.0
 11
0.08521240204572678
 21
0.00919151958078146
 31
0.0
  0
LINE
  8
0
 10
0.08521240204572678
 20
0.00919151958078146
 30
0.0
 11
0.08521240204572678
 21
0.01039039995521307
 31
0.0
  0
LINE
  8
0
 10
0.08521240204572678
 20
0.01039039995521307
 30
0.0
 11
0.08693789690732956
 21
0.01039039995521307
 31
0.0
  0
LINE
  8
0
 10
0.08693789690732956
 20
0.01039039995521307
 30
0.0
 11
0.08693789690732956
 21
0.01486079953610897
 31
0.0
  0
LINE
  8
0
 10
0.08693789690732956
 20
0.01486079953610897
 30
0.0
 11
0.12656299769878387
 21
0.01486079953610897
 31
0.0
  0
LINE
  8
0
 10
0.12656299769878387
 20
0.01486079953610897
 30
0.0
 11
0.12656299769878387
 21
0.01016169972717762
 31
0.0
  0
LINE
  8
0
 10
0.12656299769878387
 20
0.01016169972717762
 30
0.0
 11
0.1405629962682724
 21
0.01016169972717762
 31
0.0
  0
LINE
  8
0
 10
0.1405629962682724
 20
0.01016169972717762
 30
0.0
 11
0.1405629962682724
 21
0.01486079953610897
 31
0.0
  0
LINE
  8
0
 10
0.1405629962682724
 20
0.01486079953610897
 30
0.0
 11
0.18018800020217896
 21
0.01486079953610897
 31
0.0
  0
LINE
  8
0
 10
0.18018800020217896
 20
0.01486079953610897
 30
0.0
 11
0.18018800020217896
 21
0.01039039995521307
 31
0.0
  0
LINE
  8
0
 10
0.18018800020217896
 20
0.01039039995521307
 30
0.0
 11
0.18191200494766235
 21
0.01039039995521307
 31
0.0
  0
LINE
  8
0
 10
0.18191200494766235
 20
0.01039039995521307
 30
0.0
 11
0.18191200494766235
 21
0.00919151958078146
 31
0.0
  0
LINE
  8
0
 10
0.18191200494766235
 20
0.00919151958078146
 30
0.0
 11
0.18521299958229065
 21
0.00919151958078146
 31
0.0
  0
LINE
  8
0
 10
0.18521299958229065
 20
0.00919151958078146
 30
0.0
 11
0.18521299958229065
 21
0.01039039995521307
 31
0.0
  0
LINE
  8
0
 10
0.18521299958229065
 20
0.01039039995521307
 30
0.0
 11
0.18693800270557404
 21
0.01039039995521307
 31
0.0
  0
LINE
  8
0
 10
0.18693800270557404
 20
0.01039039995521307
 30
0.0
 11
0.18693800270557404
 21
0.016660500317811966
 31
0.0
  0
LINE
  8
0
 10
0.18693800270557404
 20
0.016660500317811966
 30
0.0
 11
0.18693800270557404
 21
0.016660500317811966
 31
0.0
  0
LINE
  8
0
 10
0.18693800270557404
 20
0.016660500317811966
 30
0.0
 11
0.18776200711727142
 21
0.016660500317811966
 31
0.0
  0
LINE
  8
0
 10
0.18776200711727142
 20
0.016660500317811966
 30
0.0
 11
0.18776200711727142
 21
0.01946070045232773
 31
0.0
  0
LINE
  8
0
 10
0.18693800270557404
 20
0.01946070045232773
 30
0.0
 11
0.18776200711727142
 21
0.01946070045232773
 31
0.0
  0
LINE
  8
0
 10
0.2607690095901489
 20
0.09566059708595276
 30
0.0
 11
0.2607690095901489
 21
0.09889069944620132
 31
0.0
  0
LINE
  8
0
 10
0.2607690095901489
 20
0.09889069944620132
 30
0.0
 11
0.25401899218559265
 21
0.09889069944620132
 31
0.0
  0
LINE
  8
0
 10
0.25401899218559265
 20
0.09889069944620132
 30
0.0
 11
0.25401899218559265
 21
0.09566059708595276
 31
0.0
  0
LINE
  8
0
 10
0.25401899218559265
 20
0.09566059708595276
 30
0.0
 11
0.25319400429725647
 21
0.09566059708595276
 31
0.0
  0
LINE
  8
0
 10
0.25319400429725647
 20
0.09566059708595276
 30
0.0
 11
0.25319400429725647
 21
0.09286060184240341
 31
0.0
  0
LINE
  8
0
 10
0.25319400429725647
 20
0.09286060184240341
 30
0.0
 11
0.25401899218559265
 21
0.09286060184240341
 31
0.0
  0
LINE
  8
0
 10
0.25401899218559265
 20
0.09286060184240341
 30
0.0
 11
0.25401899218559265
 21
0.08659040182828903
 31
0.0
  0
LINE
  8
0
 10
0.25401899218559265
 20
0.08659040182828903
 30
0.0
 11
0.25574299693107605
 21
0.08659040182828903
 31
0.0
  0
LINE
  8
0
 10
0.25574299693107605
 20
0.08659040182828903
 30
0.0
 11
0.25574299693107605
 21
0.08539160341024399
 31
0.0
  0
LINE
  8
0
 10
0.25574299693107605
 20
0.08539160341024399
 30
0.0
 11
0.2590450048446655
 21
0.08539160341024399
 31
0.0
  0
LINE
  8
0
 10
0.2590450048446655
 20
0.08539160341024399
 30
0.0
 11
0.2590450048446655
 21
0.08659040182828903
 31
0.0
  0
LINE
  8
0
 10
0.2590450048446655
 20
0.08659040182828903
 30
0.0
 11
0.2607690095901489
 21
0.08659040182828903
 31
0.0
  0
LINE
  8
0
 10
0.2607690095901489
 20
0.08659040182828903
 30
0.0
 11
0.2607690095901489
 21
0.09106080234050751
 31
0.0
  0
LINE
  8
0
 10
0.2607690095901489
 20
0.09106080234050751
 30
0.0
 11
0.2622950077056885
 21
0.09106080234050751
 31
0.0
  0
LINE
  8
0
 10
0.2622950077056885
 20
0.09106080234050751
 30
0.0
 11
0.2622950077056885
 21
0.08636180311441422
 31
0.0
  0
LINE
  8
0
 10
0.2622950077056885
 20
0.08636180311441422
 30
0.0
 11
0.2762939929962158
 21
0.08636180311441422
 31
0.0
  0
LINE
  8
0
 10
0.2762939929962158
 20
0.08636180311441422
 30
0.0
 11
0.2762939929962158
 21
0.09106080234050751
 31
0.0
  0
LINE
  8
0
 10
0.2762939929962158
 20
0.09106080234050751
 30
0.0
 11
0.27781999111175537
 21
0.09106080234050751
 31
0.0
  0
LINE
  8
0
 10
0.27781999111175537
 20
0.09106080234050751
 30
0.0
 11
0.27781999111175537
 21
0.08659040182828903
 31
0.0
  0
LINE
  8
0
 10
0.27781999111175537
 20
0.08659040182828903
 30
0.0
 11
0.27954500913619995
 21
0.08659040182828903
 31
0.0
  0
LINE
  8
0
 10
0.27954500913619995
 20
0.08659040182828903
 30
0.0
 11
0.27954500913619995
 21
0.08539160341024399
 31
0.0
  0
LINE
  8
0
 10
0.27954500913619995
 20
0.08539160341024399
 30
0.0
 11
0.28284499049186707
 21
0.08539160341024399
 31
0.0
  0
LINE
  8
0
 10
0.28284499049186707
 20
0.08539160341024399
 30
0.0
 11
0.28284499049186707
 21
0.08659040182828903
 31
0.0
  0
LINE
  8
0
 10
0.28284499049186707
 20
0.08659040182828903
 30
0.0
 11
0.28456899523735046
 21
0.08659040182828903
 31
0.0
  0
LINE
  8
0
 10
0.28456899523735046
 20
0.08659040182828903
 30
0.0
 11
0.28456899523735046
 21
0.09286060184240341
 31
0.0
  0
LINE
  8
0
 10
0.28456899523735046
 20
0.09286060184240341
 30
0.0
 11
0.28539401292800903
 21
0.09286060184240341
 31
0.0
  0
LINE
  8
0
 10
0.28539401292800903
 20
0.09286060184240341
 30
0.0
 11
0.28539401292800903
 21
0.09566059708595276
 31
0.0
  0
LINE
  8
0
 10
0.28539401292800903
 20
0.09566059708595276
 30
0.0
 11
0.28456899523735046
 21
0.09566059708595276
 31
0.0
  0
LINE
  8
0
 10
0.28456899523735046
 20
0.09566059708595276
 30
0.0
 11
0.28456899523735046
 21
0.09889069944620132
 31
0.0
  0
LINE
  8
0
 10
0.28456899523735046
 20
0.09889069944620132
 30
0.0
 11
0.27781999111175537
 21
0.09889069944620132
 31
0.0
  0
LINE
  8
0
 10
0.27781999111175537
 20
0.09889069944620132
 30
0.0
 11
0.27781999111175537
 21
0.09566059708595276
 31
0.0
  0
LINE
  8
0
 10
0.27781999111175537
 20
0.09566059708595276
 30
0.0
 11
0.2762939929962158
 21
0.09566059708595276
 31
0.0
  0
LINE
  8
0
 10
0.2762939929962158
 20
0.09566059708595276
 30
0.0
 11
0.2762939929962158
 21
0.10036099702119827
 31
0.0
  0
LINE
  8
0
 10
0.2762939929962158
 20
0.10036099702119827
 30
0.0
 11
0.2762939929962158
 21
0.10036099702119827
 31
0.0
  0
LINE
  8
0
 10
0.2762939929962158
 20
0.10036099702119827
 30
0.0
 11
0.2622950077056885
 21
0.10036099702119827
 31
0.0
  0
LINE
  8
0
 10
0.2622950077056885
 20
0.10036099702119827
 30
0.0
 11
0.2622950077056885
 21
0.09566059708595276
 31
0.0
  0
LINE
  8
0
 10
0.2607690095901489
 20
0.09566059708595276
 30
0.0
 11
0.2622950077056885
 21
0.09566059708595276
 31
0.0
  0
LINE
  8
0
 10
0.133419007062912
 20
0.10036099702119827
 30
0.0
 11
0.11941800266504288
 21
0.10036099702119827
 31
0.0
  0
LINE
  8
0
 10
0.11941800266504288
 20
0.10036099702119827
 30
0.0
 11
0.11941800266504288
 21
0.10036099702119827
 31
0.0
  0
LINE
  8
0
 10
0.11941800266504288
 20
0.10036099702119827
 30
0.0
 11
0.11941800266504288
 21
0.08636180311441422
 31
0.0
  0
LINE
  8
0
 10
0.11941800266504288
 20
0.08636180311441422
 30
0.0
 11
0.133419007062912
 21
0.08636180311441422
 31
0.0
  0
LINE
  8
0
 10
0.133419007062912
 20
0.10036099702119827
 30
0.0
 11
0.133419007062912
 21
0.08636180311441422
 31
0.0
  0
LINE
  8
0
 10
0.167044997215271
 20
0.08131100237369537
 30
0.0
 11
0.18104399740695953
 21
0.08131100237369537
 31
0.0
  0
LINE
  8
0
 10
0.18104399740695953
 20
0.08131100237369537
 30
0.0
 11
0.18104399740695953
 21
0.08131100237369537
 31
0.0
  0
LINE
  8
0
 10
0.18104399740695953
 20
0.08131100237369537
 30
0.0
 11
0.18104399740695953
 21
0.06731180101633072
 31
0.0
  0
LINE
  8
0
 10
0.18104399740695953
 20
0.06731180101633072
 30
0.0
 11
0.167044997215271
 21
0.06731180101633072
 31
0.0
  0
LINE
  8
0
 10
0.167044997215271
 20
0.08131100237369537
 30
0.0
 11
0.167044997215271
 21
0.06731180101633072
 31
0.0
  0
LINE
  8
0
 10
0.009727178141474724
 20
0.10739876329898834
 30
0.0
 11
0.005118030123412609
 21
0.10410982370376587
 31
0.0
  0
LINE
  8
0
 10
0.005118030123412609
 20
0.10410982370376587
 30
0.0
 11
0.005118030123412609
 21
0.11094248294830322
 31
0.0
  0
LINE
  8
0
 10
0.009727178141474724
 20
0.10739876329898834
 30
0.0
 11
0.005118030123412609
 21
0.11094248294830322
 31
0.0
  0
LINE
  8
0
 10
0.016451068222522736
 20
0.10739876329898834
 30
0.0
 11
0.011841921135783195
 21
0.10410982370376587
 31
0.0
  0
LINE
  8
0
 10
0.011841921135783195
 20
0.10410982370376587
 30
0.0
 11
0.011841921135783195
 21
0.11094248294830322
 31
0.0
  0
LINE
  8
0
 10
0.016451068222522736
 20
0.10739876329898834
 30
0.0
 11
0.011841921135783195
 21
0.11094248294830322
 31
0.0
  0
LINE
  8
0
 10
0.01903589628636837
 20
0.10410337150096893
 30
0.0
 11
0.01903589628636837
 21
0.10852441191673279
 31
0.0
  0
LINE
  8
0
 10
0.01903589628636837
 20
0.10852441191673279
 30
0.0
 11
0.021328890696167946
 21
0.1041005551815033
 31
0.0
  0
LINE
  8
0
 10
0.021328890696167946
 20
0.1041005551815033
 30
0.0
 11
0.023181814700365067
 21
0.1041005551815033
 31
0.0
  0
LINE
  8
0
 10
0.023181814700365067
 20
0.1041005551815033
 30
0.0
 11
0.023181814700365067
 21
0.11088689416646957
 31
0.0
  0
LINE
  8
0
 10
0.023181814700365067
 20
0.11088689416646957
 30
0.0
 11
0.022181235253810883
 21
0.11088689416646957
 31
0.0
  0
LINE
  8
0
 10
0.022181235253810883
 20
0.11088689416646957
 30
0.0
 11
0.022181235253810883
 21
0.10508354008197784
 31
0.0
  0
LINE
  8
0
 10
0.022181235253810883
 20
0.10508354008197784
 30
0.0
 11
0.01901434361934662
 21
0.11094248294830322
 31
0.0
  0
LINE
  8
0
 10
0.01901434361934662
 20
0.11094248294830322
 30
0.0
 11
0.01801215671002865
 21
0.11094248294830322
 31
0.0
  0
LINE
  8
0
 10
0.01801215671002865
 20
0.11094248294830322
 30
0.0
 11
0.017984364181756973
 21
0.10410982370376587
 31
0.0
  0
LINE
  8
0
 10
0.01903589628636837
 20
0.10410337150096893
 30
0.0
 11
0.017984364181756973
 21
0.10410982370376587
 31
0.0
  0
ENDSEC
  0
EOF
